<?xml version="1.0" standalone="no"?>
<!DOCTYPE svg PUBLIC "-//W3C//DTD SVG 1.1//EN" "http://www.w3.org/Graphics/SVG/1.1/DTD/svg11.dtd" >
<svg xmlns="http://www.w3.org/2000/svg">
<metadata>
This is a custom SVG webfont generated by Font Squirrel.
Copyright   : Copyright c Dustin Norlander 2002 This program is free software you can redistribute it andor modify it under the terms of the GNU General Public License as published by the Free Software Foundation either version 2 of the License or any later 
</metadata>
<defs>
<font id="webfontwUTHdDTa" horiz-adv-x="1140" >
<font-face units-per-em="2048" ascent="1638" descent="-410" />
<missing-glyph horiz-adv-x="753" />
<glyph unicode=" "  horiz-adv-x="753" />
<glyph unicode="&#x09;" horiz-adv-x="753" />
<glyph unicode="&#xa0;" horiz-adv-x="753" />
<glyph unicode="!" horiz-adv-x="403" d="M86 88q0 37 24.5 61.5t61.5 24.5q39 0 64 -24q27 -27 26 -62q0 -37 -26 -63q-25 -25 -64 -25q-37 0 -61.5 24.5t-24.5 63.5zM96 295v1059h166v-1059h-166z" />
<glyph unicode="&#x22;" horiz-adv-x="686" d="M84 874v484h164v-484h-164zM381 874v484h166v-484h-166z" />
<glyph unicode="#" horiz-adv-x="1161" d="M6 244l49 168h195l43 163h-199l45 168h197l57 228h174l-55 -228h168l57 228h172l-57 -228h176l-43 -168h-176q-6 -23 -15.5 -63.5t-25.5 -99.5h176l-45 -168h-176q-23 -82 -64 -244h-176l68 244h-170q-4 -14 -7 -29.5t-18.5 -72l-38.5 -142.5h-172l64 244h-203zM424 412 h170l43 163h-168z" />
<glyph unicode="$" horiz-adv-x="903" d="M6 430h176q34 -71 129 -74v246q-129 3 -209 68q-90 72 -90 194q0 129 86 209t213 86v199h170v-199q258 -10 316 -246h-172q-43 70 -144 76v-233q123 -2 215 -82q94 -82 95 -207q0 -135 -91 -207q-84 -66 -219 -72v-188h-170v188q-242 13 -305 242zM178 864 q0 -100 133 -108v233q-133 -8 -133 -125zM481 356q152 10 152 111q0 61 -47 98q-40 34 -105 37v-246z" />
<glyph unicode="%" horiz-adv-x="1310" d="M18 1083q0 117 84 195q83 80 197 80q119 0 199 -80q84 -78 84 -195q0 -115 -82 -194.5t-201 -79.5q-115 0 -199 80q-82 79 -82 194zM188 1083q0 -43 33 -75q31 -31 78 -31q46 0 80 31q35 31 35 75q0 43 -35 74q-37 33 -80 33t-78 -31q-33 -29 -33 -76zM299 0l401 1358 h177l-400 -1358h-178zM596 274q0 117 80 197q78 78 198 78q114 0 197 -80q82 -80 82 -194.5t-82 -194.5q-83 -80 -197 -80q-117 0 -198 78q-80 77 -80 196zM766 274q0 -43 33 -75q29 -29 76 -29t77 29q33 31 33 75q0 43 -33 74q-37 33 -78 33q-45 0 -75 -31q-33 -33 -33 -76 z" />
<glyph unicode="&#x26;" horiz-adv-x="1011" d="M37 340q0 160 180 258l-57 86l2 -2q-45 51 -45 154q0 111 86 178q76 61 192 61q119 0 193 -78q74 -76 74 -198q0 -98 -50 -160q-35 -47 -133 -107l201 -233q25 35 20 92h177q0 -117 -95 -229l62 -80l-139 -92l-56 67q-111 -57 -282 -57q-133 0 -231.5 102.5t-98.5 237.5z M207 340q0 -82 49 -127q53 -47 127 -47q104 0 168 24l-238 287q-106 -49 -106 -137zM287 819q0 -72 94 -164q129 55 129 148q0 111 -119 110q-104 0 -104 -94z" />
<glyph unicode="'" horiz-adv-x="389" d="M92 874v484h166v-484h-166z" />
<glyph unicode="(" horiz-adv-x="514" d="M53 483q0 303 60 512q92 322 301 367v-143q-193 -80 -193 -736q0 -653 193 -733v-143q-209 45 -301 366q-60 207 -60 510z" />
<glyph unicode=")" horiz-adv-x="483" d="M35 -252q193 80 192 735q0 653 -192 734v143q209 -45 301 -367q59 -207 59 -510t-59 -512q-92 -322 -301 -366v143z" />
<glyph unicode="*" horiz-adv-x="806" d="M43 518v156h184l-98 168l135 76l98 -170l99 170l133 -76l-98 -168h184v-156h-184l86 -149l-133 -78l-87 149q-12 -23 -34.5 -58.5t-53.5 -90.5l-133 78l88 149h-186z" />
<glyph unicode="+" horiz-adv-x="823" d="M20 446v166h275v291h166v-291h270v-166h-270v-284h-166v284h-275z" />
<glyph unicode="," horiz-adv-x="389" d="M43 -90q109 41 123 82q-102 23 -103 125q0 55 41 92q43 39 97 39q45 0 88 -39q39 -37 39 -86q0 -117 -72 -205q-72 -86 -188 -98z" />
<glyph unicode="-" horiz-adv-x="737" d="M51 516v166h547v-166h-547z" />
<glyph unicode="." horiz-adv-x="419" d="M51 125q0 53 37 90q39 39 88 39q51 0 90 -39q37 -37 37 -90q0 -51 -37 -88t-90 -37q-51 0 -88 37t-37 88z" />
<glyph unicode="/" horiz-adv-x="630" d="M-12 0l403 1358h174l-399 -1358h-178z" />
<glyph unicode="0" horiz-adv-x="1017" d="M39 360v248q0 158 129 273q127 111 284.5 110.5t284.5 -110.5q133 -115 133 -273v-248q0 -160 -131 -272q-123 -109 -286 -108q-160 0 -285 108q-129 112 -129 272zM203 350q0 -88 84 -149q76 -57 166 -58q92 0 170 60q82 63 82 155v248q0 94 -82 160q-74 59 -170.5 59 t-167.5 -57q-82 -63 -82 -152v-266z" />
<glyph unicode="1" horiz-adv-x="444" d="M33 0v166h86v573h-86v135q119 0 125 97h125v-805h67v-166h-317z" />
<glyph unicode="2" horiz-adv-x="1069" d="M47 0v145q0 164 105 244q78 57 237 92q197 43 258 76q94 45 94 102q0 72 -77 125q-61 41 -183 41q-96 0 -174 -43q-92 -53 -92 -143h-168q0 166 137 264q125 88 297 88q109 0 213 -43q113 -47 166 -133q49 -77 49 -153q0 -147 -149 -230q-84 -47 -295 -94 q-178 -39 -211 -76q-37 -39 -39 -96h682v-166h-850z" />
<glyph unicode="3" horiz-adv-x="1060" d="M18 39h168q0 -250 279 -250q113 0 192 61q88 66 88 177q0 133 -114 204q-94 57 -238 58v162q266 2 266 167q0 90 -65 150q-63 57 -159.5 57t-166.5 -57h-14l-131 90q57 55 102 80q94 53 209 53q166 0 279 -102q115 -104 114 -271q0 -168 -141 -243q225 -109 225 -357 q0 -178 -137 -288q-127 -106 -309 -107q-186 0 -315 113q-132 115 -132 303z" />
<glyph unicode="4" horiz-adv-x="931" d="M-8 0v152l497 819h213v-805h99v-166h-99v-387h-165v387h-545zM184 166h353v565z" />
<glyph unicode="5" horiz-adv-x="1021" d="M49 -18l31 6q51 -90 135 -150q92 -61 188 -61q139 0 232 94q92 96 92 233q0 127 -98 201q-90 66 -219 66q-135 0 -226 -90h-131v690h692v-166h-528v-307q90 37 193 37q193 0 333 -117q150 -123 150 -314q0 -215 -135 -354q-135 -137 -352 -137q-203 0 -357 151v218z" />
<glyph unicode="6" horiz-adv-x="1052" d="M18 565q0 283 193 541q188 250 506 250v-166q-190 0 -338 -141q-139 -137 -176 -328q145 86 268 86q188 0 315 -109q135 -113 136 -299q0 -174 -140 -290q-133 -109 -311 -109q-289 0 -401 223q-52 102 -52 342zM197 414q0 -123 77 -187q74 -61 199 -61q119 0 203 65h-2 q80 63 80 175q0 100 -74 167.5t-176 67.5q-123 0 -207 -49q-100 -61 -100 -178z" />
<glyph unicode="7" horiz-adv-x="1073" d="M16 805v166h961l-676 -1358h-188l587 1192h-684z" />
<glyph unicode="8" horiz-adv-x="1064" d="M29 399q0 211 186 328q-121 104 -121 268q0 150 112.5 256.5t264.5 106.5q154 0 266 -107q111 -104 111 -256q0 -164 -121 -268q188 -117 188 -328q0 -178 -135 -290q-127 -109 -309 -109t-309 109q-133 112 -133 290zM195 399q0 -104 88 -172q80 -61 188 -61 q111 0 191 61q88 68 88 172q0 106 -88 170q-83 61 -191 62q-106 0 -188 -60q-88 -63 -88 -172zM260 995q0 -84 64 -141q59 -53 147 -53t152 53q59 51 59 141q0 78 -65.5 137.5t-145.5 59.5q-78 0 -143 -59q-68 -62 -68 -138z" />
<glyph unicode="9" horiz-adv-x="1050" d="M18 592q0 174 142 291q133 109 309 108q121 0 229.5 -61.5t165.5 -163.5q55 -98 56 -348q0 -213 -109 -426q-117 -227 -297 -320q-121 -61 -289 -61v164q193 0 342 155q139 141 172 340q-144 -86 -270 -86q-188 0 -315 109q-136 113 -136 299zM186 586q0 -100 76 -170 q72 -66 174 -66q125 0 207 49q102 61 102 179q0 111 -86 180q-80 68 -190 67q-123 0 -197 -59q-86 -65 -86 -180z" />
<glyph unicode=":" horiz-adv-x="428" d="M70 129q0 53 36 90q39 39 90.5 39t88.5 -39t37 -90t-37 -88t-88 -37q-53 0 -90 37t-37 88zM70 850q0 51 36.5 88t90.5 37q51 0 88 -37t37 -88q0 -53 -37 -90q-39 -39 -88 -39q-53 0 -90 37t-37 92z" />
<glyph unicode=";" horiz-adv-x="419" d="M43 -96q106 41 121 82q-47 10 -74 45q-29 39 -29 80q0 55 41 92q43 39 97 39q45 0 88 -39q39 -37 39 -86q0 -115 -72 -203t-188 -100zM72 850q0 51 36.5 88t88.5 37q53 0 90 -37h-2q41 -37 41 -88t-39 -90t-90 -39q-49 0 -88 39q-37 37 -37 90z" />
<glyph unicode="&#x3c;" horiz-adv-x="692" d="M53 489v183l502 518v-229l-350 -381l350 -379v-230z" />
<glyph unicode="=" horiz-adv-x="813" d="M51 313v166h658v-166h-658zM51 608v166h658v-166h-658z" />
<glyph unicode="&#x3e;" horiz-adv-x="692" d="M88 -29v230l350 379l-350 381v229l502 -518v-183z" />
<glyph unicode="?" horiz-adv-x="827" d="M16 973q0 166 93 272q100 113 262 113q141 0 247.5 -100.5t106.5 -243.5q0 -137 -70 -207q-47 -47 -192 -109q-84 -43 -84 -282q0 -8 1 -31t1 -39v-53h-166q0 6 -1 27.5t-1 37.5v70q0 260 113 369q35 33 88 61l96 53h-2q45 33 45 80q0 199 -182 199q-186 0 -187 -217 h-168zM213 88q0 37 24.5 61.5t61.5 24.5q39 0 63.5 -24.5t24.5 -61.5q0 -39 -24.5 -63.5t-63.5 -24.5q-37 0 -61.5 24.5t-24.5 63.5z" />
<glyph unicode="@" horiz-adv-x="1826" d="M139 662q0 324 223 546q225 225 543 226q283 0 490 -185q213 -190 213 -471q0 -190 -68 -352q-90 -205 -258 -205q-90 0 -139 62q-29 35 -39 79q-133 -133 -334 -133q-168 0 -274 111q-109 113 -109 276q0 219 170 383q169 160 387 160q182 0 275 -129l18 74h70 q-154 162 -394 162q-254 0 -430 -176q-178 -178 -178 -428q0 -215 133 -379q141 -176 355 -177q170 0 385 125l82 -147q-250 -143 -467 -143q-281 0 -471 223q-183 213 -183 498zM553 635q0 -115 70 -178q72 -66 182 -66q145 0 250 115q98 106 98 256q0 111 -63 174 q-66 66 -175 65q-145 0 -253 -110q-109 -113 -109 -256zM1266 428q0 -43 45 -43q18 0 63 74q68 111 68 309q0 133 -62 238l-86 -431l-15 -78.5l-10 -53.5z" />
<glyph unicode="A" horiz-adv-x="1179" d="M29 0l407 1358h185l405 -1358h-176l-152 504h-346l-151 -504h-172zM403 670h248l-123 411z" />
<glyph unicode="B" horiz-adv-x="1148" d="M53 0v1358h432q180 0 312 -103q139 -109 139 -286q0 -176 -137 -283q199 -106 198 -309q0 -172 -143 -279q-132 -98 -307 -98h-494zM217 166h330q100 0 186 53q104 63 105 158q0 90 -105 149q-90 49 -186 49h-330v-409zM217 743h272q106 0 189 58q92 63 92 168 q0 100 -90 164q-84 59 -186 59h-277v-449z" />
<glyph unicode="C" horiz-adv-x="1132" d="M37 512v336q0 219 133 371q141 162 354 161q197 0 328 -131q121 -121 158 -319h-166q-22 111 -86 184q-92 100 -234 100q-143 0 -235 -104q-88 -100 -88 -248v-366q0 -145 88 -246q94 -106 235.5 -106.5t233.5 102.5v-2q65 74 86 184h166q-37 -197 -158 -317 q-131 -131 -328 -131q-213 0 -354 161q-133 152 -133 371z" />
<glyph unicode="D" horiz-adv-x="1126" d="M53 0v1358h432q211 0 353 -164q133 -154 133 -371v-291q0 -215 -133 -368q-141 -164 -353 -164h-432zM217 166h268q145 0 238 113q84 106 84 253v291q0 154 -82 256q-90 113 -240 113h-268v-1026z" />
<glyph unicode="E" horiz-adv-x="972" d="M53 0v1358h807v-166h-643v-379h516v-164h-516v-483h643v-166h-807z" />
<glyph unicode="F" horiz-adv-x="952" d="M53 0v1358h807v-166h-643v-375h516v-168h-516v-649h-164z" />
<glyph unicode="G" horiz-adv-x="1167" d="M37 512v336q0 219 133 371q141 162 354 161q221 0 361 -170q131 -160 131 -383h-166q0 162 -80 271q-86 117 -246 116q-145 0 -235 -104q-88 -100 -88 -248v-366q0 -145 88 -246q94 -106 235 -107q139 0 232 103q88 96 94 237h-281v95l2 69h369q23 0 49 -26 q25 -25 25 -48v-573h-164v106q-133 -127 -326 -126q-213 0 -354 161q-133 152 -133 371z" />
<glyph unicode="H" horiz-adv-x="1069" d="M53 0v1358h164v-690h516v690h166v-1358h-166v504h-516v-504h-164z" />
<glyph unicode="I" horiz-adv-x="641" d="M29 0v166h166v1028h-166v164h503v-164h-170v-1028h170v-166h-503z" />
<glyph unicode="J" horiz-adv-x="983" d="M-6 379v141h166v-147q0 -90 86 -160q78 -70 168 -70q98 0 174 70t76 166v813h-189v166h356v-985q0 -164 -126.5 -278.5t-288.5 -114.5q-166 0 -293 114q-129 119 -129 285z" />
<glyph unicode="K" horiz-adv-x="1183" d="M41 0v1358h166v-586l581 586h236l-555 -561l573 -797h-206l-490 672l-139 -140v-532h-166z" />
<glyph unicode="L" horiz-adv-x="940" d="M53 0v1358h164v-1192h582v-166h-746z" />
<glyph unicode="M" horiz-adv-x="1423" d="M51 0v1358h195l393 -789l391 789h201v-1358h-168v1036l-338 -674h-170l-338 674v-1036h-166z" />
<glyph unicode="N" horiz-adv-x="1193" d="M51 0v1358h180l621 -1049v1049h168v-1358h-180l-623 1055v-1055h-166z" />
<glyph unicode="O" horiz-adv-x="1161" d="M37 512v336q0 219 133 371q141 162 354 161q215 0 357 -161q135 -154 135 -371v-336q0 -217 -135 -371q-141 -162 -357 -161q-213 0 -354 161q-133 152 -133 371zM201 496q0 -145 88 -246q94 -106 235 -107q143 0 238 107q88 100 88 246v366q0 147 -88 248 q-92 104 -237.5 104t-235.5 -104q-88 -100 -88 -248v-366z" />
<glyph unicode="P" horiz-adv-x="1089" d="M51 0v1358h393q203 0 359 -111q176 -123 176 -315q0 -195 -176 -318q-156 -111 -359 -110h-227v-504h-166zM217 668h227q145 0 244 59q123 72 123 205q0 132 -123 203q-100 57 -244 57h-227v-524z" />
<glyph unicode="Q" horiz-adv-x="1167" d="M37 512v336q0 219 133 371q141 162 354 161q215 0 357 -161q135 -154 135 -371v-336q0 -77 -25 -166q-23 -94 -69 -149l94 -101v-116h-119l-37 38h2l-51 56q-127 -94 -287 -94q-213 0 -354 161q-133 152 -133 371zM201 496q0 -145 88 -246q94 -106 235 -107q104 0 176 52 l-137 147l127 107l119 -132q41 82 41 179v366q0 147 -88 248q-92 104 -238 104q-143 0 -235 -104q-88 -100 -88 -248v-366z" />
<glyph unicode="R" horiz-adv-x="1126" d="M51 0v1358h393q203 0 359 -111q176 -123 176 -315q0 -152 -113 -264q-98 -98 -256 -142l293 -526h-192l-281 504h-213v-504h-166zM217 668h246q129 0 231 65q117 74 117 199q0 129 -125 203q-104 61 -242 61h-227v-528z" />
<glyph unicode="S" horiz-adv-x="1153" d="M31 397h166q6 -254 321 -254q123 0 215 50q115 61 115 174q0 145 -211 206l-393 105q-211 88 -211 311q0 180 157 291q143 100 326 100q348 0 461 -241q37 -80 37 -178h-166q0 254 -332 253q-133 0 -215 -45q-104 -58 -104 -178q0 -102 82 -157q27 -20 174 -56 q229 -51 252 -57q137 -39 217 -111q92 -86 92 -233q0 -181 -160 -295q-145 -102 -336 -102q-205 0 -338 106q-143 112 -149 311z" />
<glyph unicode="T" horiz-adv-x="1089" d="M0 1192v166h969v-166h-408v-1192h-164v1192h-397z" />
<glyph unicode="U" horiz-adv-x="1179" d="M43 512v846h166v-864q0 -141 88 -242q92 -109 231 -109q141 0 234 109q86 101 86 246v860h166v-846q0 -212 -135 -369q-141 -164 -350.5 -163.5t-350.5 163.5q-135 157 -135 369z" />
<glyph unicode="V" horiz-adv-x="1110" d="M6 1358h174l314 -1047l319 1047h172l-405 -1358h-168z" />
<glyph unicode="W" horiz-adv-x="1488" d="M29 1358h170l170 -952l221 952h155l228 -955l166 955h174l-244 -1358h-168l-231 979l-236 -979h-164z" />
<glyph unicode="X" horiz-adv-x="1157" d="M20 0l402 684l-391 674h190l295 -510l301 510h193l-392 -674l394 -684h-191l-305 518l-299 -518h-197z" />
<glyph unicode="Y" horiz-adv-x="1077" d="M-8 1358h192l295 -510l299 510h195l-408 -680v-678h-168v678z" />
<glyph unicode="Z" horiz-adv-x="1060" d="M29 0v176l678 1020h-678v162h893v-166l-691 -1026h693v-166h-895z" />
<glyph unicode="[" horiz-adv-x="485" d="M51 -305v1583l74 80h250v-168h-158v-1403h158v-168h-250z" />
<glyph unicode="\" horiz-adv-x="634" d="M-12 1358h174l403 -1358h-178z" />
<glyph unicode="]" horiz-adv-x="509" d="M66 -213h153v1403h-153v168h243l80 -74v-1591l-80 -74h-243v168z" />
<glyph unicode="^" horiz-adv-x="1056" d="M20 854l361 504h180l363 -504h-207l-246 342l-244 -342h-207z" />
<glyph unicode="_" horiz-adv-x="1101" d="M51 0v166h881v-166h-881z" />
<glyph unicode="`" horiz-adv-x="690" d="M33 1358h299l213 -225l-82 -80z" />
<glyph unicode="a" horiz-adv-x="1095" d="M76 266q0 78 51 154q78 117 217 147q29 6 272 25q89 6 123 24q20 12 23 39q-1 -11 -1.5 -11t-0.5 61q0 57 -94 94q-74 31 -142 30q-225 0 -286 -174l-158 35q29 152 153 232q109 70 279 69q133 0 258 -63q154 -77 154 -197v-563q0 -25 49 -27q-6 -96 -6 -161 q-121 6 -172 75q-119 -76 -306 -75q-413 -1 -413 286zM248 264q0 -121 235 -121q72 0 162 27q115 35 115 94v185q-57 -14 -166 -15q-119 0 -174 -12q-92 -23 -139 -80q-33 -41 -33 -78z" />
<glyph unicode="b" horiz-adv-x="1167" d="M51 0v1358h166v-516q117 150 315 149q201 0 357 -151q154 -152 153 -357q0 -201 -151.5 -352t-353.5 -151q-197 0 -320 147v-127h-166zM223 483q0 -135 88 -235q92 -104 225.5 -104.5t238 104t104.5 235.5q0 133 -107 238q-109 104 -240 104q-135 0 -225 -104 q-84 -99 -84 -238z" />
<glyph unicode="c" horiz-adv-x="1046" d="M31 483q0 203 139 355q145 154 344 153q295 0 447 -305h-191q-94 139 -256 139q-135 0 -227 -102q-90 -98 -90 -240q0 -135 92 -237.5t225 -102.5q141 0 250 129h192q-166 -293 -442 -292q-201 0 -342 149t-141 354z" />
<glyph unicode="d" horiz-adv-x="1202" d="M41 483q0 207 152 357q156 152 358 151q197 0 313 -149v516h168v-1358h-168v127q-123 -147 -319 -147q-205 0 -354.5 149t-149.5 354zM205 483q0 -135 102.5 -237.5t237.5 -102.5q133 0 225 105q90 102 90 235q0 135 -86 238q-90 104 -223 104q-139 0 -242 -102 q-104 -105 -104 -240z" />
<glyph unicode="e" horiz-adv-x="1153" d="M31 483.5q0 204.5 145.5 356t345.5 151.5q217 0 357 -164q131 -156 131 -376h-813q10 -113 100 -207q96 -100 225 -101q96 0 193 64q88 57 133 151l166 -26q-61 -152 -195 -250q-139 -102 -297 -102q-205 0 -348 149.5t-143 354zM221 616h594q-39 90 -117 150 q-80 59 -176 59t-178 -61q-83 -62 -123 -148z" />
<glyph unicode="f" horiz-adv-x="514" d="M12 805v166h76v76q0 150 105 231q95 80 245 80v-168q-182 0 -182 -143v-76h182v-166h-182v-805h-168v805h-76z" />
<glyph unicode="g" horiz-adv-x="1128" d="M27 483q0 205 131 355q135 154 338 153q184 0 301 -151v131h166v-885q0 -199 -134 -336q-131 -133 -335 -133q-178 0 -306 115q-121 111 -151 291l162 26q61 -266 297 -266q145 0 227 102q74 94 74 242q-117 -147 -301 -147q-207 0 -342 149q-127 141 -127 354zM193 483 q0 -137 81 -233q90 -106 222 -107q133 0 213 103v-2q84 106 84 239q0 135 -80 236q-86 106 -217 106q-135 0 -222 -104q-81 -101 -81 -238z" />
<glyph unicode="h" horiz-adv-x="1079" d="M53 0v1358h164v-516q119 150 311 149q197 0 318 -153q111 -145 110 -346v-492h-163v483q0 135 -64 234q-70 109 -201 108q-133 0 -223 -104q-88 -104 -88 -238v-483h-164z" />
<glyph unicode="i" horiz-adv-x="428" d="M27 805v166h288v-971h-165v805h-123zM137 1266q0 37 29 65.5t67.5 28.5t67.5 -28.5t29 -65.5q0 -39 -29 -68q-27 -27 -68 -27q-39 0 -67.5 29t-28.5 66z" />
<glyph unicode="j" horiz-adv-x="491" d="M-8 -219q182 0 182 143v879h-121v168h289l-2 -1047q0 -150 -102 -233q-92 -78 -246 -78v168zM164 1264q0 37 28.5 65.5t67.5 28.5t68 -29q27 -27 26.5 -65.5t-26.5 -65.5q-29 -29 -68 -29t-67.5 29t-28.5 66z" />
<glyph unicode="k" horiz-adv-x="872" d="M51 0v1358h166v-660l410 308l108 -125l-323 -250l383 -631h-197l-322 530l-59 -45v-485h-166z" />
<glyph unicode="l" horiz-adv-x="430" d="M125 0v1358h168v-1358h-168z" />
<glyph unicode="m" horiz-adv-x="1576" d="M53 0v971h164v-70q90 90 225 90q201 0 287 -168q68 168 289 168q195 0 287 -164q72 -131 71 -344v-483h-166v483q0 342 -192 342q-119 0 -174 -118q-41 -92 -41 -224v-483h-166v483q0 342 -195 342q-123 0 -180 -116q-45 -88 -45 -226v-483h-164z" />
<glyph unicode="n" horiz-adv-x="1146" d="M53 0v971h164v-127q117 147 313 147q219 0 342 -141q113 -131 113 -358v-492h-166v483q0 152 -65 242q-74 100 -224 100q-139 0 -227 -102q-86 -98 -86 -240v-483h-164z" />
<glyph unicode="o" horiz-adv-x="1153" d="M31 483q0 203 139 355q145 154 346 153.5t346 -153.5q141 -150 142 -355q0 -199 -144 -352q-143 -152 -344 -151q-203 0 -344 149t-141 354zM197 483q0 -133 94 -237q92 -102 225 -103q135 0 229 105q92 100 92.5 235t-92.5 238q-94 104 -229 104t-227 -102t-92 -240z " />
<glyph unicode="p" horiz-adv-x="1142" d="M53 -387v1358h164v-129q125 150 320 149q201 0 344 -153q141 -150 141 -355q0 -201 -141 -352q-145 -152 -344 -151q-197 0 -320 147v-514h-164zM223 483q0 -133 88 -233q94 -106 225.5 -106.5t227.5 106.5q90 98 90 233q0 139 -90 238q-96 104 -227 104 q-135 0 -228 -104q-86 -103 -86 -238z" />
<glyph unicode="q" horiz-adv-x="1193" d="M53 483.5q0 204.5 141.5 356t344.5 151.5q193 0 317 -149v129h166v-1358h-166v514q-123 -147 -317 -147q-203 0 -344.5 149.5t-141.5 354zM219 483q0 -135 92 -235q94 -104 228 -105q131 0 225 107q88 100 88 233q0 135 -86 238q-92 104 -227 104t-226 -102 q-94 -107 -94 -240z" />
<glyph unicode="r" horiz-adv-x="886" d="M51 0v971h166v-135q129 135 311 135h217v-219q-125 53 -210 53q-137 0 -226 -92q-92 -96 -92 -230v-483h-166z" />
<glyph unicode="s" horiz-adv-x="1032" d="M33 283l164 34q6 -90 104 -137q80 -35 182 -35q78 0 146 27q92 37 92 100q0 66 -103 103q-68 23 -210 41q-145 18 -177 30q-45 18 -81 50q-57 47 -82 84q-25 43 -25 114q0 141 141 224q121 70 271 69q168 0 284 -67q138 -80 160 -234l-160 -35q-25 109 -139 150 q-88 25 -168 24q-115 0 -184 -53q-37 -31 -37 -72q0 -100 176 -131q66 -8 132.5 -15t129.5 -15q92 -25 178 -95q66 -55 66 -172q0 -121 -102 -190q-127 -100 -316 -100q-166 0 -282 67q-138 80 -160 234z" />
<glyph unicode="t" horiz-adv-x="641" d="M6 805v166q114 0 135 43q10 25 11 155h165v-198h236v-166h-236v-559q0 -80 78 -80h158v-166h-158q-104 0 -173.5 69.5t-69.5 176.5v559h-146z" />
<glyph unicode="u" horiz-adv-x="1069" d="M45 463v508h166v-508q0 -129 63 -217q72 -102 195 -103q133 0 205 109q59 88 59 231v488h166v-971h-166v96q-117 -117 -264 -116q-205 0 -317 143q-107 135 -107 340z" />
<glyph unicode="v" horiz-adv-x="1110" d="M2 971h184l312 -758l309 758h180l-395 -971h-193z" />
<glyph unicode="w" horiz-adv-x="1468" d="M31 971h174l239 -678l142 401l-99 277h177l239 -684l238 684h176l-250 -719q-37 -117 -90 -252h-148l-155 444l-158 -444h-145z" />
<glyph unicode="x" horiz-adv-x="1073" d="M20 0l357 481l-357 490h207l252 -346l254 346h207l-354 -490l354 -481h-211l-250 342l-248 -342h-211z" />
<glyph unicode="y" horiz-adv-x="1132" d="M0 971h188l373 -688l275 688h180l-459 -1147q-84 -211 -307 -211h-6h-17v164h12q93 0 132 45q14 16 63 137l49 123z" />
<glyph unicode="z" horiz-adv-x="1028" d="M47 0v190l582 615h-582v166h830v-160l-615 -645h615v-166h-830z" />
<glyph unicode="{" horiz-adv-x="532" d="M49 416v139q102 68 103 139q0 430 38 531q43 111 185 137l26 -166q-40 -6 -61 -37q-23 -33 -23 -145q0 -6 1 -35t1 -53q0 -23 1.5 -55.5t1.5 -41.5q0 -266 -84 -346q84 -78 84 -348q0 -8 -1.5 -38.5t-1.5 -53.5t-1 -51.5t-1 -34.5q0 -117 23 -145q23 -33 61 -39l-26 -166 q-141 27 -185 137q-39 100 -38 530q-1 74 -103 142z" />
<glyph unicode="|" horiz-adv-x="411" d="M90 -377v1735h168v-1735h-168z" />
<glyph unicode="}" horiz-adv-x="550" d="M74 -229q40 6 61 36q23 33 23 150q0 6 -1 33.5t-1 50.5v92q0 270 82 350q-82 76 -82 348q0 8 1 38t1 53v86q0 117 -23 149q-18 27 -61 37l28 166q139 -31 183 -137q39 -96 39 -531q0 -72 102 -139v-139q-102 -68 -102 -142q0 -432 -39 -528q-43 -111 -183 -139z" />
<glyph unicode="~" horiz-adv-x="786" d="M18 1010q33 92 78 137q55 55 146 55q59 0 124.5 -41t92 -41t63.5 82l156 -57q-72 -197 -223 -197q-74 0 -136 43q-59 41 -79 41q-35 0 -66 -86z" />
<glyph unicode="&#xa1;" horiz-adv-x="407" d="M92 1266q0 37 25 61q27 27 63.5 27t63.5 -27q25 -25 24.5 -61.5t-24.5 -61.5q-27 -27 -64 -26.5t-63 26.5q-25 25 -25 62zM98 0v1059h178v-1059h-178z" />
<glyph unicode="&#xa2;" horiz-adv-x="952" d="M12 610q0 172 111 295q109 121 276 152v141h170v-141q151 -22 258 -123v-223l-34 -9q-70 152 -224 189v-559q152 25 226 186l32 -8v-221q-121 -109 -258 -127v-162h-170v164q-170 27 -278.5 151.5t-108.5 294.5zM178 610q0 -104 60 -176q61 -74 161 -98v551 q-221 -62 -221 -277z" />
<glyph unicode="&#xa3;" horiz-adv-x="1150" d="M70 145q0 63 55 107q55 47 151 47q20 0 29 -2v348h-129v168h129v301q0 104 53 160q55 57 154 57q57 0 137 -24l-53 -160q-61 18 -86 18q-35 0 -35 -51v-301h103v-168h-103v-305q0 -74 -6 -104q115 -66 190 -66q184 0 252 68l127 -111q-111 -127 -379 -127q-115 0 -243 86 q-59 -86 -146 -86q-76 0 -133 33q-67 40 -67 112zM231 154q8 -8 27 -9q10 0 18 17q-45 0 -45 -8z" />
<glyph unicode="&#xa4;" horiz-adv-x="927" d="M37 348l67 70q-49 92 -49 184q0 102 51 186l-69 70l119 121l69 -70q89 49 185 49q102 0 186 -49l70 70l118 -121l-67 -70q49 -84 49 -186q0 -98 -49 -184l67 -70l-118 -119l-70 70q-90 -51 -186 -51q-94 0 -185 51l-69 -70zM223 602q0 -78 53.5 -131t133.5 -53 q76 0 133 53q53 51 53 131q0 82 -53.5 135.5t-133 53.5t-133 -53.5t-53.5 -135.5z" />
<glyph unicode="&#xa5;" horiz-adv-x="1071" d="M-12 1358h192l295 -510l301 510h193l-408 -680v-111h205v-168h-205v-75h205v-168h-205v-336h-168v336h-227v168h227v75h-227v168h227v111z" />
<glyph unicode="&#xa6;" horiz-adv-x="331" d="M59 356h168v-733h-168v733zM59 571v787h168v-787h-168z" />
<glyph unicode="&#xa7;" horiz-adv-x="743" d="M49 150h187q-18 -31 -19 -52q0 -119 121 -118q70 0 100 36v-2q25 31 25 90q0 37 -64 89l-272 206q-78 61 -78 189q0 182 168 243q-92 70 -121 103q-47 57 -47 145q0 131 80 205t209 74q293 0 293 -334h-182q14 35 14 49q0 117 -125 117q-123 0 -123 -121q0 -61 107 -137 q168 -121 196 -146q106 -100 107 -221q0 -131 -129 -207q-8 -6 -43 -20l120 -96q57 -57 58 -138q0 -133 -80 -212.5t-213 -79.5q-147 0 -221 98q-68 90 -68 240zM215 584q0 -47 41 -76q35 -23 82 -23q66 0 94 29q31 31 31 70q0 47 -41 78q-35 27 -84 26q-123 0 -123 -104z " />
<glyph unicode="&#xa8;" horiz-adv-x="724" d="M37 1047q0 49 32.5 83.5t82 34.5t81.5 -37q33 -35 33 -81q0 -49 -32.5 -82t-82 -33t-82 33t-32.5 82zM385 1047q0 45 35 83q33 35 84 35q47 0 80 -35q35 -39 34 -83q0 -49 -32.5 -82t-81.5 -33q-51 0 -84 33q-35 35 -35 82z" />
<glyph unicode="&#xa9;" horiz-adv-x="1513" d="M25 678q0 276 198 475q197 197 477 197q283 0 482 -195q197 -193 196.5 -477.5t-197 -481t-481.5 -196.5q-283 0 -479 196.5t-196 481.5zM182 678q0 -215 151.5 -366.5t366.5 -151.5q221 0 371 149.5t150 368.5q0 215 -154 366q-152 150 -367 150q-213 0 -364 -152 q-154 -153 -154 -364zM246 674q0 201 135 330t336 129q188 0 330 -129v-224l-33 -8q-41 84 -121 141q-82 55 -176 56q-135 0 -219 -82q-86 -84 -86 -213q0 -137 84 -215q88 -82 221 -82q94 0 176 53q78 51 119 143l35 -8v-223q-145 -129 -330 -129q-201 0 -336 129t-135 332 z" />
<glyph unicode="&#xaa;" horiz-adv-x="1095" d="M76 266q0 78 51 154q78 117 217 147q29 6 272 25q89 6 123 24q20 12 23 39q-1 -11 -1.5 -11t-0.5 61q0 57 -94 94q-74 31 -142 30q-225 0 -286 -174l-158 35q29 152 153 232q109 70 279 69q133 0 258 -63q154 -77 154 -197v-563q0 -25 49 -27q-6 -96 -6 -161 q-121 6 -172 75q-119 -76 -306 -75q-413 -1 -413 286zM248 264q0 -121 235 -121q72 0 162 27q115 35 115 94v185q-57 -14 -166 -15q-119 0 -174 -12q-92 -23 -139 -80q-33 -41 -33 -78z" />
<glyph unicode="&#xab;" horiz-adv-x="1009" d="M20 522l472 490v-228l-197 -266l197 -262v-229zM424 522l471 490v-228l-199 -266l199 -262v-229z" />
<glyph unicode="&#xac;" horiz-adv-x="1052" d="M25 676v170h866l-2 -475h-166v305h-698z" />
<glyph unicode="&#xad;" horiz-adv-x="917" d="M78 516v166h698v-166h-698z" />
<glyph unicode="&#x2212;" horiz-adv-x="917" d="M78 516v166h698v-166h-698z" />
<glyph unicode="&#xae;" horiz-adv-x="1513" d="M25 678q0 276 198 475q197 197 477 197q283 0 482 -195q197 -193 196.5 -477.5t-197 -481t-481.5 -196.5q-283 0 -479 196.5t-196 481.5zM182 678q0 -215 151.5 -366.5t366.5 -151.5q172 0 306 96h-146l-135 195h-107v-195h-169v872q-267 -155 -267 -450zM457 1133l266 2 q139 0 235 -103q98 -104 99 -241q0 -188 -160 -291l147 -213q176 152 177 391q0 215 -154 366q-152 150 -367 150q-132 0 -243 -61zM618 621h117q66 0 111 53q43 52 43 117q0 70 -51 122q-51 55 -113 56l-107 -4v-344z" />
<glyph unicode="&#xaf;" horiz-adv-x="876" d="M-18 1192v166h784v-166h-784z" />
<glyph unicode="&#x2c9;" horiz-adv-x="876" d="M-18 1192v166h784v-166h-784z" />
<glyph unicode="&#xb0;" horiz-adv-x="677" d="M25 1083q0 115 81 195q83 80 197 80q119 0 199 -80q82 -76 82 -195q0 -117 -82 -196q-80 -78 -199 -78q-117 0 -197 80q-81 81 -81 194zM193 1083q0 -43 32 -75q31 -31 78 -31q46 0 80 31q35 31 35 75.5t-35 75.5q-34 31 -80 31q-41 0 -78 -33q-32 -33 -32 -74z" />
<glyph unicode="&#xb1;" horiz-adv-x="827" d="M12 375v168h283v272h-275v168h275v289h168v-289h268v-168h-268v-272h272v-168h-723z" />
<glyph unicode="&#xb2;" horiz-adv-x="2048" />
<glyph unicode="&#xb3;" horiz-adv-x="2048" />
<glyph unicode="&#xb4;" horiz-adv-x="659" d="M98 1133l213 225h299l-430 -305z" />
<glyph unicode="&#xb5;" horiz-adv-x="1028" d="M20 -281q82 143 117 496q14 143 29 528h164q0 -151 37 -325q51 -248 141 -248q86 0 139 250q37 174 37 323h164q16 -365 16 -372q10 -188 39 -371h-170q-10 68 -12 137q-86 -137 -213 -137q-133 0 -215 137q-16 -205 -49 -323q-39 -139 -105 -205z" />
<glyph unicode="&#x3bc;" horiz-adv-x="1028" d="M20 -281q82 143 117 496q14 143 29 528h164q0 -151 37 -325q51 -248 141 -248q86 0 139 250q37 174 37 323h164q16 -365 16 -372q10 -188 39 -371h-170q-10 68 -12 137q-86 -137 -213 -137q-133 0 -215 137q-16 -205 -49 -323q-39 -139 -105 -205z" />
<glyph unicode="&#xb6;" horiz-adv-x="909" d="M16 639q0 117 66 217q74 115 184 115h541v-166h-139v-805h-166v805h-80v-805h-166v311q-111 12 -178 117q-62 92 -62 211z" />
<glyph unicode="&#xb7;" horiz-adv-x="2048" />
<glyph unicode="&#xb8;" horiz-adv-x="491" d="M14 39h183q25 -33 65 -55l-2 2q123 -61 123 -179q0 -137 -197 -137l-82 137q39 25 107 37zM227 -154z" />
<glyph unicode="&#xb9;" horiz-adv-x="2048" />
<glyph unicode="&#xba;" horiz-adv-x="2048" />
<glyph unicode="&#xbb;" horiz-adv-x="1013" d="M33 25v231l198 262l-198 266v230l448 -492zM436 27v229l199 262l-199 266v228l469 -490z" />
<glyph unicode="&#xbc;" horiz-adv-x="2048" />
<glyph unicode="&#xbd;" horiz-adv-x="2048" />
<glyph unicode="&#xbe;" horiz-adv-x="2918" d="M1979 0v152l497 819h213v-805h99v-166h-99v-387h-165v387h-545zM2171 166h353v565zM1043 0l671 1358h187l-670 -1358h-188zM18 39h168q0 -250 279 -250q113 0 192 61q88 66 88 177q0 133 -114 204q-94 57 -238 58v162q266 2 266 167q0 90 -65 150q-63 57 -159.5 57 t-166.5 -57h-14l-131 90q57 55 102 80q94 53 209 53q166 0 279 -102q115 -104 114 -271q0 -168 -141 -243q225 -109 225 -357q0 -178 -137 -288q-127 -106 -309 -107q-186 0 -315 113q-132 115 -132 303z" />
<glyph unicode="&#xbf;" horiz-adv-x="813" d="M16 385h168q0 -217 187 -217q182 0 182 199q0 47 -45 79h2l-111 60q-138 80 -172 246q-12 58 -12 313h166v-51q0 -16 -1 -40t-1 -32q0 -242 84 -283q158 -74 192 -108q70 -68 70 -209t-106.5 -241.5t-247.5 -100.5q-162 0 -262 113q-93 108 -93 272zM213 1270q0 37 25 61 q27 27 61 27q37 0 63 -27q25 -25 25 -61.5t-25 -61.5q-27 -27 -63 -26q-35 0 -61 26q-25 25 -25 62z" />
<glyph unicode="&#xc0;" horiz-adv-x="1179" d="M29 0l407 1358h185l405 -1358h-176l-152 504h-346l-151 -504h-172zM403 670h248l-123 411zM105 1723h299l213 -225l-82 -80z" />
<glyph unicode="&#xc1;" horiz-adv-x="1165" d="M29 0l407 1358h185l405 -1358h-176l-152 504h-346l-151 -504h-172zM403 670h248l-123 411zM475 1504l213 225h299l-430 -305z" />
<glyph unicode="&#xc2;" horiz-adv-x="1165" d="M29 0l407 1358h185l405 -1358h-176l-152 504h-346l-151 -504h-172zM403 670h248l-123 411zM227 1415l215 303h182l217 -303h-207l-102 139l-98 -139h-207z" />
<glyph unicode="&#xc3;" horiz-adv-x="1165" d="M29 0l407 1358h185l405 -1358h-176l-152 504h-346l-151 -504h-172zM403 670h248l-123 411zM202 1491q66 195 220 195q53 0 128.5 -41t90.5 -41q27 0 63 84l158 -58q-72 -197 -227 -196q-66 0 -179 71h4q-25 12 -38 13q-29 0 -64 -86z" />
<glyph unicode="&#xc4;" horiz-adv-x="1165" d="M29 0l407 1358h185l405 -1358h-176l-152 504h-346l-151 -504h-172zM403 670h248l-123 411zM236 1547q0 49 32.5 83.5t82 34.5t81.5 -37q33 -35 33 -81q0 -49 -32.5 -82t-82 -33t-82 33t-32.5 82zM584 1547q0 45 35 83q33 35 84 35q47 0 80 -35q35 -39 34 -83 q0 -49 -32.5 -82t-81.5 -33q-51 0 -84 33q-35 35 -35 82z" />
<glyph unicode="&#xc5;" horiz-adv-x="1165" d="M29 0l407 1358h185l405 -1358h-176l-152 504h-346l-151 -504h-172zM403 670h248l-123 411zM533 1526q-57 0 -57.5 -55.5t57.5 -55.5q63 0 63 55.5t-63 55.5zM532.5 1645q71.5 0 126.5 -51q51 -49 51.5 -123t-51 -123t-126.5 -49q-68 0 -123 51q-51 49 -51.5 120.5t51 123 t123 51.5z" />
<glyph unicode="&#xc6;" horiz-adv-x="1767" d="M-12 0l807 1358h831v-160h-641v-381h514v-168h-514v-487h641v-162h-811v432h-371l-260 -432h-196zM543 600h272v463z" />
<glyph unicode="&#xc7;" horiz-adv-x="1118" d="M37 512v336q0 219 133 371q141 162 354 161q197 0 328 -131q121 -121 158 -319h-166q-22 111 -86 184q-92 100 -234 100q-143 0 -235 -104q-88 -100 -88 -248v-366q0 -145 88 -246q94 -106 235.5 -106.5t233.5 102.5v-2q65 74 86 184h166q-37 -197 -158 -317 q-131 -131 -328 -131q-213 0 -354 161q-133 152 -133 371zM305 74h183q25 -33 65 -55l-2 2q123 -61 123 -179q0 -137 -197 -137l-82 137q39 25 107 37zM518 -119z" />
<glyph unicode="&#xc8;" horiz-adv-x="958" d="M53 0v1358h807v-166h-643v-379h516v-164h-516v-483h643v-166h-807zM29 1720h299l213 -225l-82 -80z" />
<glyph unicode="&#xc9;" horiz-adv-x="958" d="M53 0v1358h807v-166h-643v-379h516v-164h-516v-483h643v-166h-807zM387 1495l213 225h299l-430 -305z" />
<glyph unicode="&#xca;" horiz-adv-x="958" d="M53 0v1358h807v-166h-643v-379h516v-164h-516v-483h643v-166h-807zM137 1428l215 303h182l217 -303h-207l-102 139l-98 -139h-207z" />
<glyph unicode="&#xcb;" horiz-adv-x="958" d="M53 0v1358h807v-166h-643v-379h516v-164h-516v-483h643v-166h-807zM131 1536q0 49 32.5 83.5t82 34.5t81.5 -37q33 -35 33 -81q0 -49 -32.5 -82t-82 -33t-82 33t-32.5 82zM479 1536q0 45 35 83q33 35 84 35q47 0 80 -35q35 -39 34 -83q0 -49 -32.5 -82t-81.5 -33 q-51 0 -84 33q-35 35 -35 82z" />
<glyph unicode="&#xcc;" horiz-adv-x="626" d="M29 0v166h166v1028h-166v164h503v-164h-170v-1028h170v-166h-503zM-61 1725h299l213 -225l-82 -80z" />
<glyph unicode="&#xcd;" horiz-adv-x="626" d="M29 0v166h166v1028h-166v164h503v-164h-170v-1028h170v-166h-503zM65 1498l213 225h299l-430 -305z" />
<glyph unicode="&#xce;" horiz-adv-x="626" d="M29 0v166h166v1028h-166v164h503v-164h-170v-1028h170v-166h-503zM-29 1422l215 303h182l217 -303h-207l-102 139l-98 -139h-207z" />
<glyph unicode="&#xcf;" horiz-adv-x="626" d="M29 0v166h166v1028h-166v164h503v-164h-170v-1028h170v-166h-503zM-22 1541q0 49 32.5 83.5t82 34.5t81.5 -37q33 -35 33 -81q0 -49 -32.5 -82t-82 -33t-82 33t-32.5 82zM326 1541q0 45 35 83q33 35 84 35q47 0 80 -35q35 -39 34 -83q0 -49 -32.5 -82t-81.5 -33 q-51 0 -84 33q-35 35 -35 82z" />
<glyph unicode="&#xd0;" horiz-adv-x="1210" d="M-96 608v170h211v580h436q207 0 348 -164q135 -158 135 -371v-291q0 -215 -135 -368q-141 -164 -348 -164h-436v608h-211zM281 162h270q143 0 237 114q90 109 91 256v291q0 150 -91 258q-96 117 -237 117h-270v-420h227v-170h-227v-446z" />
<glyph unicode="&#xd1;" horiz-adv-x="1181" d="M51 0v1358h180l621 -1049v1049h168v-1358h-180l-623 1055v-1055h-166zM223 1481q66 195 220 195q53 0 128.5 -41t90.5 -41q27 0 63 84l158 -58q-72 -197 -227 -196q-66 0 -179 71h4q-25 12 -38 13q-29 0 -64 -86z" />
<glyph unicode="&#xd2;" horiz-adv-x="1146" d="M37 512v336q0 219 133 371q141 162 354 161q215 0 357 -161q135 -154 135 -371v-336q0 -217 -135 -371q-141 -162 -357 -161q-213 0 -354 161q-133 152 -133 371zM201 496q0 -145 88 -246q94 -106 235 -107q143 0 238 107q88 100 88 246v366q0 147 -88 248 q-92 104 -237.5 104t-235.5 -104q-88 -100 -88 -248v-366zM266 1720h299l213 -225l-82 -80z" />
<glyph unicode="&#xd3;" horiz-adv-x="1146" d="M37 512v336q0 219 133 371q141 162 354 161q215 0 357 -161q135 -154 135 -371v-336q0 -217 -135 -371q-141 -162 -357 -161q-213 0 -354 161q-133 152 -133 371zM201 496q0 -145 88 -246q94 -106 235 -107q143 0 238 107q88 100 88 246v366q0 147 -88 248 q-92 104 -237.5 104t-235.5 -104q-88 -100 -88 -248v-366zM405 1489l213 225h299l-430 -305z" />
<glyph unicode="&#xd4;" horiz-adv-x="1146" d="M37 512v336q0 219 133 371q141 162 354 161q215 0 357 -161q135 -154 135 -371v-336q0 -217 -135 -371q-141 -162 -357 -161q-213 0 -354 161q-133 152 -133 371zM201 496q0 -145 88 -246q94 -106 235 -107q143 0 238 107q88 100 88 246v366q0 147 -88 248 q-92 104 -237.5 104t-235.5 -104q-88 -100 -88 -248v-366zM227 1428l215 303h182l217 -303h-207l-102 139l-98 -139h-207z" />
<glyph unicode="&#xd5;" horiz-adv-x="1146" d="M37 512v336q0 219 133 371q141 162 354 161q215 0 357 -161q135 -154 135 -371v-336q0 -217 -135 -371q-141 -162 -357 -161q-213 0 -354 161q-133 152 -133 371zM201 496q0 -145 88 -246q94 -106 235 -107q143 0 238 107q88 100 88 246v366q0 147 -88 248 q-92 104 -237.5 104t-235.5 -104q-88 -100 -88 -248v-366zM188 1481q66 195 220 195q53 0 128.5 -41t90.5 -41q27 0 63 84l158 -58q-72 -197 -227 -196q-66 0 -179 71h4q-25 12 -38 13q-29 0 -64 -86z" />
<glyph unicode="&#xd6;" horiz-adv-x="1146" d="M37 512v336q0 219 133 371q141 162 354 161q215 0 357 -161q135 -154 135 -371v-336q0 -217 -135 -371q-141 -162 -357 -161q-213 0 -354 161q-133 152 -133 371zM201 496q0 -145 88 -246q94 -106 235 -107q143 0 238 107q88 100 88 246v366q0 147 -88 248 q-92 104 -237.5 104t-235.5 -104q-88 -100 -88 -248v-366zM230 1543q0 49 32.5 83.5t82 34.5t81.5 -37q33 -35 33 -81q0 -49 -32.5 -82t-82 -33t-82 33t-32.5 82zM578 1543q0 45 35 83q33 35 84 35q47 0 80 -35q35 -39 34 -83q0 -49 -32.5 -82t-81.5 -33q-51 0 -84 33 q-35 35 -35 82z" />
<glyph unicode="&#xd7;" horiz-adv-x="1052" d="M158 387l200 203l-194 192l117 117l194 -194l207 206l117 -116l-207 -207l192 -191l-116 -116l-193 190l-201 -201z" />
<glyph unicode="&#xd8;" horiz-adv-x="1107" d="M-8 532v291q0 213 135 371q145 164 352 164q104 0 217 -60l12.5 24.5l18.5 35.5h184l-80 -170q129 -156 130 -365v-291q0 -217 -136 -370q-141 -162 -352 -162q-106 0 -203 51l-26 -51h-187l74 156q-139 151 -139 376zM150 532q0 -126 61 -221l414 842q-74 45 -152 45 q-141 0 -235 -119q-88 -113 -88 -256v-291zM340 195q59 -33 139 -33q143 0 238 117q90 113 90 253v291q0 102 -55 201z" />
<glyph unicode="&#xd9;" horiz-adv-x="1165" d="M43 512v846h166v-864q0 -141 88 -242q92 -109 231 -109q141 0 234 109q86 101 86 246v860h166v-846q0 -212 -135 -369q-141 -164 -350.5 -163.5t-350.5 163.5q-135 157 -135 369zM256 1622h299l213 -225l-82 -80z" />
<glyph unicode="&#xda;" horiz-adv-x="1165" d="M43 512v846h166v-864q0 -141 88 -242q92 -109 231 -109q141 0 234 109q86 101 86 246v860h166v-846q0 -212 -135 -369q-141 -164 -350.5 -163.5t-350.5 163.5q-135 157 -135 369zM276 1500l213 225h299l-430 -305z" />
<glyph unicode="&#xdb;" horiz-adv-x="1165" d="M43 512v846h166v-864q0 -141 88 -242q92 -109 231 -109q141 0 234 109q86 101 86 246v860h166v-846q0 -212 -135 -369q-141 -164 -350.5 -163.5t-350.5 163.5q-135 157 -135 369zM221 1422l215 303h182l217 -303h-207l-102 139l-98 -139h-207z" />
<glyph unicode="&#xdc;" horiz-adv-x="1165" d="M43 512v846h166v-864q0 -141 88 -242q92 -109 231 -109q141 0 234 109q86 101 86 246v860h166v-846q0 -212 -135 -369q-141 -164 -350.5 -163.5t-350.5 163.5q-135 157 -135 369zM230 1539q0 49 32.5 83.5t82 34.5t81.5 -37q33 -35 33 -81q0 -49 -32.5 -82t-82 -33 t-82 33t-32.5 82zM578 1539q0 45 35 83q33 35 84 35q47 0 80 -35q35 -39 34 -83q0 -49 -32.5 -82t-81.5 -33q-51 0 -84 33q-35 35 -35 82z" />
<glyph unicode="&#xdd;" horiz-adv-x="1062" d="M-8 1358h192l295 -510l299 510h195l-408 -680v-678h-168v678zM235 1493l213 225h299l-430 -305z" />
<glyph unicode="&#xde;" horiz-adv-x="1263" d="M39 1378v176h395v-176h-112v-413q125 133 317 133q201 0 342 -140q143 -141 143 -337q0 -207 -139 -349q-141 -145 -346 -145q-188 0 -315 135v-414h110v-176h-393v176h115v1530h-117zM332 606q0 -137 88 -227t223 -90q137 0 229.5 92t92.5 225t-94.5 227.5t-227.5 94.5 q-135 0 -223 -92q-88 -91 -88 -230z" />
<glyph unicode="&#xdf;" horiz-adv-x="2048" />
<glyph unicode="&#xe0;" d="M101 266q0 78 51 154q78 117 217 147q29 6 272 25q89 6 123 24q20 12 23 39q-1 -11 -1.5 -11t-0.5 61q0 57 -94 94q-74 31 -142 30q-225 0 -286 -174l-158 35q29 152 153 232q109 70 279 69q133 0 258 -63q154 -77 154 -197v-563q0 -25 49 -27q-6 -96 -6 -161 q-121 6 -172 75q-119 -76 -306 -75q-413 -1 -413 286zM273 264q0 -121 235 -121q72 0 162 27q115 35 115 94v185q-57 -14 -166 -15q-119 0 -174 -12q-92 -23 -139 -80q-33 -41 -33 -78zM121 1358h299l213 -225l-82 -80z" />
<glyph unicode="&#xe1;" d="M101 266q0 78 51 154q78 117 217 147q29 6 272 25q89 6 123 24q20 12 23 39q-1 -11 -1.5 -11t-0.5 61q0 57 -94 94q-74 31 -142 30q-225 0 -286 -174l-158 35q29 152 153 232q109 70 279 69q133 0 258 -63q154 -77 154 -197v-563q0 -25 49 -27q-6 -96 -6 -161 q-121 6 -172 75q-119 -76 -306 -75q-413 -1 -413 286zM273 264q0 -121 235 -121q72 0 162 27q115 35 115 94v185q-57 -14 -166 -15q-119 0 -174 -12q-92 -23 -139 -80q-33 -41 -33 -78zM426 1133l213 225h299l-430 -305z" />
<glyph unicode="&#xe2;" d="M101 266q0 78 51 154q78 117 217 147q29 6 272 25q89 6 123 24q20 12 23 39q-1 -11 -1.5 -11t-0.5 61q0 57 -94 94q-74 31 -142 30q-225 0 -286 -174l-158 35q29 152 153 232q109 70 279 69q133 0 258 -63q154 -77 154 -197v-563q0 -25 49 -27q-6 -96 -6 -161 q-121 6 -172 75q-119 -76 -306 -75q-413 -1 -413 286zM273 264q0 -121 235 -121q72 0 162 27q115 35 115 94v185q-57 -14 -166 -15q-119 0 -174 -12q-92 -23 -139 -80q-33 -41 -33 -78zM205 1055l215 303h182l217 -303h-207l-102 139l-98 -139h-207z" />
<glyph unicode="&#xe3;" d="M101 266q0 78 51 154q78 117 217 147q29 6 272 25q89 6 123 24q20 12 23 39q-1 -11 -1.5 -11t-0.5 61q0 57 -94 94q-74 31 -142 30q-225 0 -286 -174l-158 35q29 152 153 232q109 70 279 69q133 0 258 -63q154 -77 154 -197v-563q0 -25 49 -27q-6 -96 -6 -161 q-121 6 -172 75q-119 -76 -306 -75q-413 -1 -413 286zM273 264q0 -121 235 -121q72 0 162 27q115 35 115 94v185q-57 -14 -166 -15q-119 0 -174 -12q-92 -23 -139 -80q-33 -41 -33 -78zM188 1120q66 195 220 195q53 0 128.5 -41t90.5 -41q27 0 63 84l158 -58 q-72 -197 -227 -196q-66 0 -179 71h4q-25 12 -38 13q-29 0 -64 -86z" />
<glyph unicode="&#xe4;" d="M101 266q0 78 51 154q78 117 217 147q29 6 272 25q89 6 123 24q20 12 23 39q-1 -11 -1.5 -11t-0.5 61q0 57 -94 94q-74 31 -142 30q-225 0 -286 -174l-158 35q29 152 153 232q109 70 279 69q133 0 258 -63q154 -77 154 -197v-563q0 -25 49 -27q-6 -96 -6 -161 q-121 6 -172 75q-119 -76 -306 -75q-413 -1 -413 286zM273 264q0 -121 235 -121q72 0 162 27q115 35 115 94v185q-57 -14 -166 -15q-119 0 -174 -12q-92 -23 -139 -80q-33 -41 -33 -78zM223 1178q0 49 32.5 83.5t82 34.5t81.5 -37q33 -35 33 -81q0 -49 -32.5 -82t-82 -33 t-82 33t-32.5 82zM571 1178q0 45 35 83q33 35 84 35q47 0 80 -35q35 -39 34 -83q0 -49 -32.5 -82t-81.5 -33q-51 0 -84 33q-35 35 -35 82z" />
<glyph unicode="&#xe5;" d="M101 266q0 78 51 154q78 117 217 147q29 6 272 25q89 6 123 24q20 12 23 39q-1 -11 -1.5 -11t-0.5 61q0 57 -94 94q-74 31 -142 30q-225 0 -286 -174l-158 35q29 152 153 232q109 70 279 69q133 0 258 -63q154 -77 154 -197v-563q0 -25 49 -27q-6 -96 -6 -161 q-121 6 -172 75q-119 -76 -306 -75q-413 -1 -413 286zM273 264q0 -121 235 -121q72 0 162 27q115 35 115 94v185q-57 -14 -166 -15q-119 0 -174 -12q-92 -23 -139 -80q-33 -41 -33 -78zM537 1284q-57 0 -57.5 -55.5t57.5 -55.5q63 0 63 55.5t-63 55.5zM536.5 1403 q71.5 0 126.5 -51q51 -49 51.5 -123t-51 -123t-126.5 -49q-68 0 -123 51q-51 49 -51.5 120.5t51 123t123 51.5z" />
<glyph unicode="&#xe6;" horiz-adv-x="1916" d="M37 334q0 104 72 192q72 86 174 117q78 23 213 23q176 0 280 18q-28 117 -141 117h-252q-68 0 -104 -47q-37 -45 -37 -115h-168q0 137 84 233q88 98 225 99h252q178 0 274 -160q147 160 359 160q201 0 344 -144q141 -141 141 -344v-32h-807q10 -119 115 -203 q100 -82 221 -82q100 0 184 51q86 52 129 141l166 -26q-55 -147 -188 -242q-129 -90 -291 -90q-160 0 -281 84v-14q-57 63 -96 63t-63 -31q-84 -102 -285 -102h-137q-147 0 -262 90q-121 99 -121 244zM207 334q0 -74 72 -123q61 -41 141 -41h137q94 0 162 53q59 47 59 111 v176q-68 -12 -358 -12q-80 0 -141 -41q-72 -47 -72 -123zM975 621h586q-35 80 -121 133q-82 51 -172 51q-88 0 -172 -53q-86 -53 -121 -131z" />
<glyph unicode="&#xe7;" horiz-adv-x="999" d="M31 483q0 203 139 355q145 154 344 153q295 0 447 -305h-191q-94 139 -256 139q-135 0 -227 -102q-90 -98 -90 -240q0 -135 92 -237.5t225 -102.5q141 0 250 129h192q-166 -293 -442 -292q-201 0 -342 149t-141 354zM333 70h183q25 -33 65 -55l-2 2q123 -61 123 -179 q0 -137 -197 -137l-82 137q39 25 107 37zM546 -123z" />
<glyph unicode="&#xe8;" horiz-adv-x="1134" d="M27 483.5q0 204.5 145.5 356t345.5 151.5q217 0 357 -164q131 -156 131 -376h-813q10 -113 100 -207q96 -100 225 -101q96 0 193 64q88 57 133 151l166 -26q-61 -152 -195 -250q-139 -102 -297 -102q-205 0 -348 149.5t-143 354zM217 616h594q-39 90 -117 150 q-80 59 -176 59t-178 -61q-83 -62 -123 -148zM117 1358h299l213 -225l-82 -80z" />
<glyph unicode="&#xe9;" horiz-adv-x="1134" d="M27 483.5q0 204.5 145.5 356t345.5 151.5q217 0 357 -164q131 -156 131 -376h-813q10 -113 100 -207q96 -100 225 -101q96 0 193 64q88 57 133 151l166 -26q-61 -152 -195 -250q-139 -102 -297 -102q-205 0 -348 149.5t-143 354zM217 616h594q-39 90 -117 150 q-80 59 -176 59t-178 -61q-83 -62 -123 -148zM420 1133l213 225h299l-430 -305z" />
<glyph unicode="&#xea;" horiz-adv-x="1134" d="M27 483.5q0 204.5 145.5 356t345.5 151.5q217 0 357 -164q131 -156 131 -376h-813q10 -113 100 -207q96 -100 225 -101q96 0 193 64q88 57 133 151l166 -26q-61 -152 -195 -250q-139 -102 -297 -102q-205 0 -348 149.5t-143 354zM217 616h594q-39 90 -117 150 q-80 59 -176 59t-178 -61q-83 -62 -123 -148zM227 1055l215 303h182l217 -303h-207l-102 139l-98 -139h-207z" />
<glyph unicode="&#xeb;" horiz-adv-x="1134" d="M27 483.5q0 204.5 145.5 356t345.5 151.5q217 0 357 -164q131 -156 131 -376h-813q10 -113 100 -207q96 -100 225 -101q96 0 193 64q88 57 133 151l166 -26q-61 -152 -195 -250q-139 -102 -297 -102q-205 0 -348 149.5t-143 354zM217 616h594q-39 90 -117 150 q-80 59 -176 59t-178 -61q-83 -62 -123 -148zM211 1166q0 49 32.5 83.5t82 34.5t81.5 -37q33 -35 33 -81q0 -49 -32.5 -82t-82 -33t-82 33t-32.5 82zM559 1166q0 45 35 83q33 35 84 35q47 0 80 -35q35 -39 34 -83q0 -49 -32.5 -82t-81.5 -33q-51 0 -84 33q-35 35 -35 82z " />
<glyph unicode="&#xec;" horiz-adv-x="505" d="M-37 1366h299l213 -225l-82 -80zM155 971h289v-971h-166v805h-123v166z" />
<glyph unicode="&#xed;" horiz-adv-x="481" d="M-8 1139l213 225h299l-430 -305zM155 971h289v-971h-166v805h-123v166z" />
<glyph unicode="&#xee;" horiz-adv-x="720" d="M57 1055l215 303h182l217 -303h-207l-102 139l-98 -139h-207zM213 971h289v-971h-166v805h-123v166z" />
<glyph unicode="&#xef;" horiz-adv-x="720" d="M84 1162q0 49 32.5 83.5t82 34.5t81.5 -37q33 -35 33 -81q0 -49 -32.5 -82t-82 -33t-82 33t-32.5 82zM432 1162q0 45 35 83q33 35 84 35q47 0 80 -35q35 -39 34 -83q0 -49 -32.5 -82t-81.5 -33q-51 0 -84 33q-35 35 -35 82zM223 971h289v-971h-166v805h-123v166z" />
<glyph unicode="&#xf0;" horiz-adv-x="1052" d="M53 389q0 184 152 301q137 106 327 107q115 0 211 -64q-20 172 -125 279l-200 -90l-70 153l135 60q-70 43 -225 43v168h70q178 0 338 -127l235 104l72 -154l-193 -84q104 -152 140 -333q29 -147 28 -363q0 -172 -137 -289q-132 -111 -307 -110q-176 0 -309 108 q-142 117 -142 291zM221 379q0 -95 80 -160h-2q82 -63 207 -63q121 0 194 61q80 68 80 186q0 117 -92 177q-80 51 -198.5 51t-192.5 -68q-76 -69 -76 -184z" />
<glyph unicode="&#xf1;" horiz-adv-x="1132" d="M53 0v971h164v-127q117 147 313 147q219 0 342 -141q113 -131 113 -358v-492h-166v483q0 152 -65 242q-74 100 -224 100q-139 0 -227 -102q-86 -98 -86 -240v-483h-164zM196 1122q66 195 220 195q53 0 128.5 -41t90.5 -41q27 0 63 84l158 -58q-72 -197 -227 -196 q-66 0 -179 71h4q-25 12 -38 13q-29 0 -64 -86z" />
<glyph unicode="&#xf2;" d="M31 483q0 203 139 355q145 154 346 153.5t346 -153.5q141 -150 142 -355q0 -199 -144 -352q-143 -152 -344 -151q-203 0 -344 149t-141 354zM197 483q0 -133 94 -237q92 -102 225 -103q135 0 229 105q92 100 92.5 235t-92.5 238q-94 104 -229 104t-227 -102t-92 -240z M66 1358h299l213 -225l-82 -80z" />
<glyph unicode="&#xf3;" d="M31 483q0 203 139 355q145 154 346 153.5t346 -153.5q141 -150 142 -355q0 -199 -144 -352q-143 -152 -344 -151q-203 0 -344 149t-141 354zM197 483q0 -133 94 -237q92 -102 225 -103q135 0 229 105q92 100 92.5 235t-92.5 238q-94 104 -229 104t-227 -102t-92 -240z M420 1133l213 225h299l-430 -305z" />
<glyph unicode="&#xf4;" d="M31 483q0 203 139 355q145 154 346 153.5t346 -153.5q141 -150 142 -355q0 -199 -144 -352q-143 -152 -344 -151q-203 0 -344 149t-141 354zM197 483q0 -133 94 -237q92 -102 225 -103q135 0 229 105q92 100 92.5 235t-92.5 238q-94 104 -229 104t-227 -102t-92 -240z M219 1055l215 303h182l217 -303h-207l-102 139l-98 -139h-207z" />
<glyph unicode="&#xf5;" d="M31 483q0 203 139 355q145 154 346 153.5t346 -153.5q141 -150 142 -355q0 -199 -144 -352q-143 -152 -344 -151q-203 0 -344 149t-141 354zM197 483q0 -133 94 -237q92 -102 225 -103q135 0 229 105q92 100 92.5 235t-92.5 238q-94 104 -229 104t-227 -102t-92 -240z M186 1114q66 195 220 195q53 0 128.5 -41t90.5 -41q27 0 63 84l158 -58q-72 -197 -227 -196q-66 0 -179 71h4q-25 12 -38 13q-29 0 -64 -86z" />
<glyph unicode="&#xf6;" d="M31 483q0 203 139 355q145 154 346 153.5t346 -153.5q141 -150 142 -355q0 -199 -144 -352q-143 -152 -344 -151q-203 0 -344 149t-141 354zM197 483q0 -133 94 -237q92 -102 225 -103q135 0 229 105q92 100 92.5 235t-92.5 238q-94 104 -229 104t-227 -102t-92 -240z M221 1180q0 49 32.5 83.5t82 34.5t81.5 -37q33 -35 33 -81q0 -49 -32.5 -82t-82 -33t-82 33t-32.5 82zM569 1180q0 45 35 83q33 35 84 35q47 0 80 -35q35 -39 34 -83q0 -49 -32.5 -82t-81.5 -33q-51 0 -84 33q-35 35 -35 82z" />
<glyph unicode="&#xf7;" horiz-adv-x="1083" d="M-8 375v164h1018v-164h-1018zM360 141q0 53 37 90t90.5 37t90 -36.5t36.5 -90t-36.5 -90.5t-90 -37t-90.5 37t-37 90zM360 760q0 51 37 88t90.5 37t90 -37t36.5 -88q0 -53 -36 -90q-39 -39 -90.5 -39t-90.5 39q-37 37 -37 90z" />
<glyph unicode="&#xf8;" horiz-adv-x="1200" d="M86 483q0 205 139 344q143 143 344 144q84 0 189 -39q16 23 26 39h189l-80 -127q162 -145 162 -361q0 -201 -141.5 -342t-344.5 -141q-98 0 -174 31l-18 -31h-191l70 111q-170 141 -170 372zM248 483q0 -135 94 -229l330 534q-47 16 -103 17q-135 0 -227 -92 q-94 -95 -94 -230zM483 172q18 -6 86 -6q133 0 226 92q94 94 94 225t-82 215z" />
<glyph unicode="&#xf9;" horiz-adv-x="1054" d="M45 463v508h166v-508q0 -129 63 -217q72 -102 195 -103q133 0 205 109q59 88 59 231v488h166v-971h-166v96q-117 -117 -264 -116q-205 0 -317 143q-107 135 -107 340zM115 1358h299l213 -225l-82 -80z" />
<glyph unicode="&#xfa;" horiz-adv-x="1054" d="M45 463v508h166v-508q0 -129 63 -217q72 -102 195 -103q133 0 205 109q59 88 59 231v488h166v-971h-166v96q-117 -117 -264 -116q-205 0 -317 143q-107 135 -107 340zM280 1133l213 225h299l-430 -305z" />
<glyph unicode="&#xfb;" horiz-adv-x="1054" d="M45 463v508h166v-508q0 -129 63 -217q72 -102 195 -103q133 0 205 109q59 88 59 231v488h166v-971h-166v96q-117 -117 -264 -116q-205 0 -317 143q-107 135 -107 340zM170 1057l215 303h182l217 -303h-207l-102 139l-98 -139h-207z" />
<glyph unicode="&#xfc;" horiz-adv-x="1054" d="M45 463v508h166v-508q0 -129 63 -217q72 -102 195 -103q133 0 205 109q59 88 59 231v488h166v-971h-166v96q-117 -117 -264 -116q-205 0 -317 143q-107 135 -107 340zM182 1168q0 49 32.5 83.5t82 34.5t81.5 -37q33 -35 33 -81q0 -49 -32.5 -82t-82 -33t-82 33t-32.5 82z M530 1168q0 45 35 83q33 35 84 35q47 0 80 -35q35 -39 34 -83q0 -49 -32.5 -82t-81.5 -33q-51 0 -84 33q-35 35 -35 82z" />
<glyph unicode="&#xfd;" horiz-adv-x="1118" d="M0 971h188l373 -688l275 688h180l-459 -1147q-84 -211 -307 -211h-6h-17v164h12q93 0 132 45q14 16 63 137l49 123zM321 1133l213 225h299l-430 -305z" />
<glyph unicode="&#xfe;" horiz-adv-x="1284" d="M47 1411v176h191l92 -151v-344q129 135 317 135q197 0 340 -142q145 -141 146 -337q0 -203 -142 -349q-141 -143 -344 -143q-188 0 -315 133v-510h110v-176h-395v176h117l-2 1532h-115zM340 733q0 -137 88 -227t223 -90t228 92q94 94 94 225q0 129 -94 228 q-92 94 -227.5 94t-223.5 -92q-88 -91 -88 -230z" />
<glyph unicode="&#xff;" horiz-adv-x="1118" d="M0 971h188l373 -688l275 688h180l-459 -1147q-84 -211 -307 -211h-6h-17v164h12q93 0 132 45q14 16 63 137l49 123zM268 1174q0 49 32.5 83.5t82 34.5t81.5 -37q33 -35 33 -81q0 -49 -32.5 -82t-82 -33t-82 33t-32.5 82zM616 1174q0 45 35 83q33 35 84 35q47 0 80 -35 q35 -39 34 -83q0 -49 -32.5 -82t-81.5 -33q-51 0 -84 33q-35 35 -35 82z" />
<glyph unicode="&#x131;" horiz-adv-x="436" d="M53 971h289v-971h-166v805h-123v166z" />
<glyph unicode="&#x152;" horiz-adv-x="1871" d="M43 532v291q0 215 137 371q141 164 355 164q182 0 323 -141v73h811v-155h-643v-318h518v-168h-518v-434h643v-156h-811v82q-141 -141 -334 -141q-207 0 -348 166q-133 157 -133 366zM199 532q0 -151 92 -258q94 -113 244 -112q141 0 233 117q86 106 86 253v291 q0 154 -88 260q-96 115 -242 115q-139 0 -235 -119q-90 -113 -90 -256v-291z" />
<glyph unicode="&#x153;" horiz-adv-x="1978" d="M47 483q0 209 127 344q133 143 336 144q250 0 395 -217q139 217 377 217q201 0 334 -146q127 -135 127 -342v-37h-756q15 -123 98 -202q80 -78 207 -78q190 0 285 192l164 -26q-59 -152 -172 -240q-120 -92 -277 -92q-240 0 -387 219q-139 -219 -395 -219 q-203 0 -334 141q-129 137 -129 342zM211 483q0 -133 82 -225q80 -92 217 -92q133 0 223 92q88 90 88 225q0 133 -88 227.5t-223 94.5q-131 0 -217 -94q-82 -95 -82 -228zM1016 621h534q-86 184 -268 184q-186 0 -266 -184z" />
<glyph unicode="&#x178;" horiz-adv-x="1077" d="M-2 1358h192l295 -510l299 510h195l-408 -680v-678h-168v678zM182 1536q0 49 32.5 83.5t82 34.5t81.5 -37q33 -35 33 -81q0 -49 -32.5 -82t-82 -33t-82 33t-32.5 82zM530 1536q0 45 35 83q33 35 84 35q47 0 80 -35q35 -39 34 -83q0 -49 -32.5 -82t-81.5 -33q-51 0 -84 33 q-35 35 -35 82z" />
<glyph unicode="&#x2c6;" horiz-adv-x="720" d="M37 1055l215 303h182l217 -303h-207l-102 139l-98 -139h-207z" />
<glyph unicode="&#x2da;" horiz-adv-x="542" d="M236 1239q-57 0 -57.5 -55.5t57.5 -55.5q63 0 63 55.5t-63 55.5zM235.5 1358q71.5 0 126.5 -51q51 -49 51.5 -123t-51 -123t-126.5 -49q-68 0 -123 51q-51 49 -51.5 120.5t51 123t123 51.5z" />
<glyph unicode="&#x2dc;" horiz-adv-x="786" d="M18 985q66 195 220 195q53 0 128.5 -41t90.5 -41q27 0 63 84l158 -58q-72 -197 -227 -196q-66 0 -179 71h4q-25 12 -38 13q-29 0 -64 -86z" />
<glyph unicode="&#x2000;" horiz-adv-x="862" />
<glyph unicode="&#x2001;" horiz-adv-x="1728" />
<glyph unicode="&#x2002;" horiz-adv-x="862" />
<glyph unicode="&#x2003;" horiz-adv-x="1728" />
<glyph unicode="&#x2004;" horiz-adv-x="575" />
<glyph unicode="&#x2005;" horiz-adv-x="430" />
<glyph unicode="&#x2006;" horiz-adv-x="286" />
<glyph unicode="&#x2007;" horiz-adv-x="286" />
<glyph unicode="&#x2008;" horiz-adv-x="215" />
<glyph unicode="&#x2009;" horiz-adv-x="344" />
<glyph unicode="&#x200a;" horiz-adv-x="94" />
<glyph unicode="&#x2010;" horiz-adv-x="737" d="M51 516v166h547v-166h-547z" />
<glyph unicode="&#x2011;" horiz-adv-x="737" d="M51 516v166h547v-166h-547z" />
<glyph unicode="&#x2012;" horiz-adv-x="737" d="M51 516v166h547v-166h-547z" />
<glyph unicode="&#x2013;" horiz-adv-x="995" d="M51 504v166h785v-166h-785z" />
<glyph unicode="&#x2014;" horiz-adv-x="1613" d="M25 494v170h1407v-170h-1407z" />
<glyph unicode="&#x2018;" horiz-adv-x="382" d="M16 1059q0 102 78 194q80 96 174 105q16 -25 19 -33q10 -31 10 -41q0 -4 -4 -20q-94 -31 -115 -82q53 -35 68 -52q25 -28 24 -79q0 -117 -139 -117q-47 0 -80 39q-35 41 -35 86z" />
<glyph unicode="&#x2019;" horiz-adv-x="382" d="M29 956q0 14 2 21q96 33 119 84q-92 65 -93 135q0 45 41 80t84 35q51 0 88 -37t37 -88q0 -102 -76 -197v2q-80 -100 -188 -112q0 23 -6 39q-8 22 -8 38z" />
<glyph unicode="&#x201a;" horiz-adv-x="389" d="M29 -88q104 41 121 84q-100 20 -101 125q0 55 39 92q43 39 96 39q47 0 90 -39q37 -35 37 -88q0 -115 -71 -203q-72 -86 -189 -98z" />
<glyph unicode="&#x201c;" horiz-adv-x="727" d="M35 1059q0 100 80 194q80 95 178 105q18 -35 22 -94q-102 -35 -118 -80q8 -8 14 -10l-2 2q80 -49 80 -127q0 -115 -139 -115q-47 0 -80 39q-35 41 -35 86zM315 1061q0 98 80 194q80 94 180 105l27 -94q-80 -27 -117 -70h-2q-8 -12 -10 -18h2q12 0 37 -17q57 -37 57 -119 q0 -109 -139 -108q-49 0 -82 39t-33 88z" />
<glyph unicode="&#x201d;" horiz-adv-x="722" d="M41 1008q0 10 2 16q63 27 92 48.5t27 41.5q-2 -2 -6 -2t-31 16q-57 33 -57 113v4q6 46 43 80q37 33 84 33q51 0 87.5 -37t36.5 -86q0 -102 -77 -199q-80 -94 -181 -106q-2 4 -18 53q-2 9 -2 25zM319 1010q0 6 11 16q96 39 112 86v4q0 -2 -4 -2q-8 0 -32 19 q-57 39 -58 106q0 49 37 86q33 33 88 33q53 0 88 -35q37 -37 37 -86q0 -109 -76 -199q-78 -96 -178 -108q-8 16 -20 59v-2q-5 21 -5 23z" />
<glyph unicode="&#x201e;" horiz-adv-x="722" d="M41 -88q0 10 2 16q119 45 119 92h-4q-10 0 -33 15q-57 33 -57 112v3q4 23 16 45q39 70 111 69q49 0 88 -39q37 -37 36 -88q0 -102 -77 -194q-80 -98 -181 -109q-2 4 -18 53q-2 9 -2 25zM319 -86q2 10 11 18q94 35 112 86v2q-37 0 -65 43q-29 41 -29 84h2v3q4 47 39 79 q39 35 84 35q51 0 88 -37t37 -88q0 -106 -76 -196q-78 -96 -178 -109q-6 10 -20 60q-5 12 -5 20z" />
<glyph unicode="&#x2022;" horiz-adv-x="602" d="M33 657q0 95 67 160q66 63 162 64q92 0 162 -66q68 -66 68 -158t-68 -155q-70 -66 -162 -66q-96 0 -162 64q-67 65 -67 157z" />
<glyph unicode="&#x2026;" horiz-adv-x="1548" d="M47 125q0 53 37 90q39 39 88 39q53 0 92 -39q37 -37 37 -90q0 -49 -39 -88q-37 -37 -90 -37q-51 0 -88 37t-37 88zM571 125q0 53 37 90q39 39 90.5 39t89.5 -39q35 -35 35 -90q0 -51 -36.5 -88t-88.5 -37q-53 0 -90 37t-37 88zM1094 125q0 53 36 90q39 39 93 39 q49 0 88 -39q37 -37 37 -90q0 -51 -37 -88t-88 -37q-53 0 -90 37q-39 39 -39 88z" />
<glyph unicode="&#x202f;" horiz-adv-x="344" />
<glyph unicode="&#x2039;" horiz-adv-x="557" d="M-18 508l471 489v-227l-199 -268l199 -262v-228z" />
<glyph unicode="&#x203a;" horiz-adv-x="573" d="M51 10v230l197 262l-197 268v229l469 -491z" />
<glyph unicode="&#x2044;" horiz-adv-x="923" d="M-18 0l671 1358h187l-670 -1358h-188z" />
<glyph unicode="&#x205f;" horiz-adv-x="430" />
<glyph unicode="&#x20ac;" horiz-adv-x="1052" d="M-94 432v168h176v184h-176v168h182q29 178 154 303q133 133 307 134q156 0 287 -113q133 -115 163 -262h-157q-92 211 -291 211q-113 0 -197 -82q-78 -74 -102 -191h201v-168h-209v-184h209v-168h-205q14 -113 98 -203q90 -94 203 -94q94 0 176 64q80 63 115 151h159 q-39 -156 -163 -264q-131 -115 -287 -115q-184 0 -316 142q-123 137 -147 319h-180z" />
<glyph unicode="&#x2122;" horiz-adv-x="1236" d="M37 1190v168h463v-168h-146v-334h-166v334h-151zM518 856v502h191l79 -258l82 258h189v-502h-166v59l-19 -59h-169l-17 51v-51h-170z" />
<glyph unicode="&#xe000;" horiz-adv-x="970" d="M0 970h970v-970h-970v970z" />
<glyph unicode="&#xfb01;" horiz-adv-x="944" d="M541 805v166h288v-971h-165v805h-123zM651 1266q0 37 29 65.5t67.5 28.5t67.5 -28.5t29 -65.5q0 -39 -29 -68q-27 -27 -68 -27q-39 0 -67.5 29t-28.5 66zM12 805v166h76v76q0 150 105 231q95 80 245 80v-168q-182 0 -182 -143v-76h182v-166h-182v-805h-168v805h-76z" />
<glyph unicode="&#xfb02;" horiz-adv-x="946" d="M639 0v1358h168v-1358h-168zM12 805v166h76v76q0 150 105 231q95 80 245 80v-168q-182 0 -182 -143v-76h182v-166h-182v-805h-168v805h-76z" />
<glyph unicode="&#xfb03;" horiz-adv-x="1458" d="M1057 805v166h288v-971h-165v805h-123zM1167 1266q0 37 29 65.5t67.5 28.5t67.5 -28.5t29 -65.5q0 -39 -29 -68q-27 -27 -68 -27q-39 0 -67.5 29t-28.5 66zM526 805v166h76v76q0 150 105 231q95 80 245 80v-168q-182 0 -182 -143v-76h182v-166h-182v-805h-168v805h-76z M12 805v166h76v76q0 150 105 231q95 80 245 80v-168q-182 0 -182 -143v-76h182v-166h-182v-805h-168v805h-76z" />
<glyph unicode="&#xfb04;" horiz-adv-x="1460" d="M1155 0v1358h168v-1358h-168zM526 805v166h76v76q0 150 105 231q95 80 245 80v-168q-182 0 -182 -143v-76h182v-166h-182v-805h-168v805h-76zM12 805v166h76v76q0 150 105 231q95 80 245 80v-168q-182 0 -182 -143v-76h182v-166h-182v-805h-168v805h-76z" />
</font>
</defs>
</svg>
