<?xml version="1.0" standalone="no"?>
<!DOCTYPE svg PUBLIC "-//W3C//DTD SVG 1.1//EN" "http://www.w3.org/Graphics/SVG/1.1/DTD/svg11.dtd" >
<svg xmlns="http://www.w3.org/2000/svg">
<metadata>
This is a custom SVG webfont generated by Font Squirrel.
Copyright   : Copyright
</metadata>
<defs>
<font id="NewRegular" horiz-adv-x="1088" >
<font-face units-per-em="2048" ascent="1638" descent="-410" />
<missing-glyph horiz-adv-x="500" />
<glyph unicode=" " />
<glyph unicode="!" d="M464 80q0 32 24 56t56 24t56 -24t24 -56t-24 -56t-56 -24t-56 24t-24 56zM504 1088q0 192 8 272t32 80t32 -80t8 -272t-16 -672h-48q-16 480 -16 672z" />
<glyph unicode="&#x22;" d="M320 896v544h48v-544h-48zM720 896v544h48v-544h-48z" />
<glyph unicode="#" d="M96 432v48h224v480h-224v48h224v432h48v-432h352v432h48v-432h224v-48h-224v-480h224v-48h-224v-432h-48v432h-352v-432h-48v432h-224zM368 480h352v480h-352v-480z" />
<glyph unicode="$" d="M96 397h48q0 -112 91 -230.5t285 -118.5v704q-59 22 -241.5 102t-182.5 250t118.5 253t305.5 83v128h48v-128q194 0 309 -83t115 -218h-48q0 122 -113.5 187.5t-262.5 65.5v-611q59 -26 241.5 -128.5t182.5 -288t-118.5 -275t-305.5 -89.5v-128h-48v128 q-226 0 -325 134.5t-99 262.5zM144 1113.5q0 -140.5 158.5 -220.5t217.5 -93v592q-155 0 -265.5 -69t-110.5 -209.5zM563 736l5 -685h14q153 0 255 69q107 72 107 238.5t-155.5 256t-225.5 121.5z" />
<glyph unicode="%" d="M6 0l1018 1440h58l-1018 -1440h-58zM96 1256q0 75 54.5 129.5t129.5 54.5t129.5 -54.5t54.5 -129.5t-54.5 -129.5t-129.5 -54.5t-129.5 54.5t-54.5 129.5zM144 1256q0 -56 40 -96t96 -40t96 40t40 96t-40 96t-96 40t-96 -40t-40 -96zM627 181q0 75 54.5 129.5t129.5 54.5 t129.5 -54.5t54.5 -129.5t-54.5 -129.5t-129.5 -54.5t-129.5 54.5t-54.5 129.5zM675 181q0 -56 40 -96t96 -40t96 40t40 96t-40 96t-96 40t-96 -40t-40 -96z" />
<glyph unicode="&#x26;" d="M96 352q0 128 77 272t211 330q-160 173 -160 272t48 156.5t128 57.5t128 -57.5t48 -157t-141 -285t-216 -339t-75 -256t88 -200t248 -97.5t280 133t120 261t-65.5 208t-174.5 102v48h352v-48h-205q141 -157 141 -304t-75 -248l171 -166l-34 -34l-171 166 q-141 -166 -339 -166t-291 112t-93 240zM272 1226q0 -80 144 -234q112 154 112 234t-37 123t-91 43t-91 -43t-37 -123z" />
<glyph unicode="'" d="M381 896l272 544h54l-272 -544h-54z" />
<glyph unicode="(" d="M378 720q0 418 297 720l34 -34q-283 -286 -283 -686t283 -686l-34 -34q-297 302 -297 720z" />
<glyph unicode=")" d="M378 34q283 286 283 686t-283 686l33 34q298 -302 298 -720t-298 -720z" />
<glyph unicode="*" d="M115 749l378 211l-371 224l25 45l373 -224v435h48v-435l386 217l19 -38l-378 -224l384 -224l-32 -32l-379 211v-435h-48v435l-379 -211z" />
<glyph unicode="+" d="M184 696v48h336v336h48v-336h336v-48h-336v-336h-48v336h-336z" />
<glyph unicode="," d="M464 80q0 32 24 56t56 24t56 -24t24 -96t-35 -153.5t-125 -126.5q80 144 80 240q-32 0 -56 24t-24 56z" />
<glyph unicode="-" d="M184 696v48h720v-48h-720z" />
<glyph unicode="." d="M464 80q0 32 24 56t56 24t56 -24t24 -56t-24 -56t-56 -24t-56 24t-24 56z" />
<glyph unicode="/" d="M6 0l1018 1440h58l-1018 -1440h-58z" />
<glyph unicode="0" d="M184 720q0 288 84 504t276 216t276 -216t84 -504t-84 -504t-276 -216t-276 216t-84 504zM232 720q0 -269 69.5 -470.5t242.5 -201.5t242.5 201.5t69.5 470.5t-69.5 470.5t-242.5 201.5t-242.5 -201.5t-69.5 -470.5z" />
<glyph unicode="1" d="M424 1248l192 192h48v-1440h-48v1373l-158 -159z" />
<glyph unicode="2" d="M184 0v48l578 784q94 120 94 248t-92 220t-220 92t-220 -92t-92 -220h-48q0 147 106.5 253.5t253.5 106.5t253.5 -100t106.5 -253.5t-104 -286.5l-560 -752h664v-48h-720z" />
<glyph unicode="3" d="M184 360h48q0 -128 92 -220t220 -92t220 92t92 220t-92 232t-220 104v48q128 0 220 104t92 232t-92 220t-220 92t-220 -92t-92 -220h-48q0 147 106.5 253.5t253.5 106.5t253.5 -100t106.5 -253.5t-61.5 -236t-138.5 -130.5q77 -48 138.5 -130.5t61.5 -229.5 t-106.5 -253.5t-253.5 -106.5t-253.5 106.5t-106.5 253.5z" />
<glyph unicode="4" d="M184 432v48q232 192 232 736h48q0 -544 -208 -736h432v960h48v-960h168v-48h-168v-432h-48v432h-504z" />
<glyph unicode="5" d="M184 360h48q0 -128 92 -220t220 -92t220 126.5t92 305.5t-92 305.5t-220 126.5t-294 -202l-39 26l90 704h525v-48h-474l-77 -566q122 134 269 134t253.5 -141t106.5 -339t-106.5 -339t-253.5 -141t-253.5 106.5t-106.5 253.5z" />
<glyph unicode="6" d="M184 480q0 595 106.5 777.5t253.5 182.5t217.5 -51t102.5 -103l-32 -32q-32 51 -96 94.5t-192 43.5t-214.5 -174.5t-92.5 -475.5q6 38 83 128t224 90t253.5 -141t106.5 -339t-106.5 -339t-253.5 -141t-253.5 141t-106.5 339zM232 480q0 -179 92 -305.5t220 -126.5 t220 126.5t92 305.5t-92 305.5t-220 126.5t-220 -126.5t-92 -305.5z" />
<glyph unicode="7" d="M184 0l667 1395l-667 -3v48h720v-48l-667 -1392h-53z" />
<glyph unicode="8" d="M184 360q0 147 61.5 229.5t138.5 130.5q-77 48 -138.5 130.5t-61.5 229.5t106.5 253.5t253.5 106.5t253.5 -100t106.5 -253.5t-61.5 -236t-138.5 -130.5q77 -48 138.5 -130.5t61.5 -229.5t-106.5 -253.5t-253.5 -106.5t-253.5 106.5t-106.5 253.5zM232 360 q0 -128 92 -220t220 -92t220 92t92 220t-92 232t-220 104t-220 -104t-92 -232zM232 1080q0 -128 92 -232t220 -104t220 104t92 232t-92 220t-220 92t-220 -92t-92 -220z" />
<glyph unicode="9" d="M184 960q0 198 106.5 339t253.5 141t253.5 -141t106.5 -339q0 -595 -106.5 -777.5t-253.5 -182.5t-217.5 51t-102.5 103l32 32q32 -51 96 -94.5t192 -43.5t214.5 174.5t92.5 475.5q-6 -38 -83 -128t-224 -90t-253.5 141t-106.5 339zM232 960q0 -179 92 -305.5t220 -126.5 t220 126.5t92 305.5t-92 305.5t-220 126.5t-220 -126.5t-92 -305.5z" />
<glyph unicode=":" d="M464 80q0 32 24 56t56 24t56 -24t24 -56t-24 -56t-56 -24t-56 24t-24 56zM464 720q0 32 24 56t56 24t56 -24t24 -56t-24 -56t-56 -24t-56 24t-24 56z" />
<glyph unicode=";" d="M464 80q0 32 24 56t56 24t56 -24t24 -96t-35 -153.5t-125 -126.5q80 144 80 240q-32 0 -56 24t-24 56zM464 720q0 32 24 56t56 24t56 -24t24 -56t-24 -56t-56 -24t-56 24t-24 56z" />
<glyph unicode="&#x3c;" d="M184 720l720 360v-48l-629 -312l629 -312v-48z" />
<glyph unicode="=" d="M184 504v48h720v-48h-720zM184 888v48h720v-48h-720z" />
<glyph unicode="&#x3e;" d="M184 360v48l629 312l-629 312v48l720 -360z" />
<glyph unicode="?" d="M184 1080q0 147 106.5 253.5t253.5 106.5t253.5 -100t106.5 -253.5t-84 -252t-168 -175.5t-84 -179v-64h-48v64q0 128 76 196t168 172t92 232t-92 220t-220 92t-220 -92t-92 -220h-48zM464 80q0 32 24 56t56 24t56 -24t24 -56t-24 -56t-56 -24t-56 24t-24 56z" />
<glyph unicode="@" d="M64 720q0 192 144 336t336 144t336 -126.5t144 -270.5t-70.5 -217.5t-144 -73.5t-131.5 64q-64 -64 -147 -64t-140.5 54.5t-57.5 163t67 153.5t291 45v-288q0 -38 64 -70q21 -11 44 -11q46 0 99 43q78 64 78 195t-126.5 243t-302.5 112t-305.5 -128t-129.5 -304 t129.5 -304t302.5 -128t250 45l32 -32q-90 -61 -282 -61t-336 144t-144 336zM378 726.5q0 -86.5 44.5 -128t105.5 -41.5t90 38q26 35 26 238q0 23 -1 47h-28q-151 0 -193 -32q-44 -35 -44 -121.5z" />
<glyph unicode="A" d="M6 0l514 1440h48l514 -1440h-48l-154 435l-672 -3l-154 -432h-48zM226 480h636l-318 893z" />
<glyph unicode="B" d="M96 0v1440h557q149 0 260 -112t111 -261t-80 -233.5t-134 -113.5q54 -29 134 -114.5t80 -234.5t-111 -260t-260 -111h-557zM144 48h509q130 0 226.5 97t96.5 226.5t-97 227t-226 97.5h-509v-648zM144 744h509q130 0 226.5 97t96.5 226.5t-97 227t-226 97.5h-509v-648z " />
<glyph unicode="C" d="M136 720q0 288 144 504t336 216t336 -216l-34 -34q-130 202 -302.5 202t-302 -201.5t-129.5 -470.5t129.5 -470.5t302.5 -201.5t302 202l34 -34q-144 -216 -336 -216t-336 216t-144 504z" />
<glyph unicode="D" d="M96 0v1440h288q256 0 448 -216t192 -504t-192 -504t-448 -216h-288zM144 48l240 3h7q232 0 407 199q178 202 178 470.5t-177.5 470t-414.5 201.5h-240v-1344z" />
<glyph unicode="E" d="M96 0v1440h896v-48h-848v-648h560v-48h-560v-648h848v-48h-896z" />
<glyph unicode="F" d="M96 0v1440h896v-48h-848v-648h560v-48h-560v-696h-48z" />
<glyph unicode="G" d="M64 720q0 288 144 504t336 216q230 0 339 -128l-45 -19q-90 99 -294 99q-173 0 -302.5 -201.5t-129.5 -470.5t129.5 -470.5t302.5 -201.5t302.5 201.5t129.5 422.5h-368v48h416q0 -288 -144 -504t-336 -216t-336 216t-144 504z" />
<glyph unicode="H" d="M96 0v1440h48v-696h800v696h48v-1440h-48v696h-800v-696h-48z" />
<glyph unicode="I" d="M224 0v48h296v1344h-296v48h640v-48h-296v-1344h296v-48h-640z" />
<glyph unicode="J" d="M64 480h48q0 -173 129.5 -302.5t302.5 -129.5t302.5 129.5t129.5 302.5v960h48v-960q0 -192 -144 -336t-336 -144t-336 144t-144 336z" />
<glyph unicode="K" d="M96 0v1440h48v-768l870 768h68l-653 -570l653 -870h-68l-617 838l-253 -233v-605h-48z" />
<glyph unicode="L" d="M96 0v1440h48v-1392h848v-48h-896z" />
<glyph unicode="M" d="M96 0v1440h48l400 -858l400 858h48v-1440h-48v1325l-400 -858l-400 858v-1325h-48z" />
<glyph unicode="N" d="M96 0v1440h48l800 -1334v1334h48v-1440h-48l-800 1334v-1334h-48z" />
<glyph unicode="O" d="M64 720q0 288 144 504t336 216t336 -216t144 -504t-144 -504t-336 -216t-336 216t-144 504zM112 720q0 -269 129.5 -470.5t302.5 -201.5t302.5 201.5t129.5 470.5t-129.5 470.5t-302.5 201.5t-302.5 -201.5t-129.5 -470.5z" />
<glyph unicode="P" d="M96 0v1440h557q149 0 260 -112t111 -261t-111 -268t-260 -119h-509v-680h-48zM144 744h509q130 0 226.5 97t96.5 226.5t-97 227t-226 97.5h-509v-648z" />
<glyph unicode="Q" d="M64 720q0 288 144 504t336 216t336 -216t144 -504t-128 -490l141 -192l-39 -38l-134 186q-128 -186 -320 -186t-336 216t-144 504zM112 720q0 -269 129.5 -470.5t302.5 -201.5t294 182l-243 333l32 45l237 -326q112 170 112 438.5t-129.5 470t-302.5 201.5t-302.5 -201.5 t-129.5 -470.5z" />
<glyph unicode="R" d="M96 0v1440h557q149 0 260 -112t111 -261t-111 -268t-260 -119l429 -680h-64l-429 680h-445v-680h-48zM144 744h509q130 0 226.5 97t96.5 226.5t-97 227t-226 97.5h-509v-648z" />
<glyph unicode="S" d="M96 397h48q0 -112 91 -230.5t293 -118.5t309 72t107 238.5t-212 280t-424 204.5t-212 261t118.5 253t333 83t329.5 -83t115 -218h-48q0 122 -113.5 187.5t-289.5 65.5t-286.5 -69t-110.5 -209.5t212 -236.5t424 -211.5t212 -301t-118.5 -275t-349 -89.5t-329.5 134.5 t-99 262.5z" />
<glyph unicode="T" d="M96 1392v48h896v-48h-424v-1392h-48v1392h-424z" />
<glyph unicode="U" d="M64 480v960h48v-960q0 -173 129.5 -302.5t302.5 -129.5t302.5 129.5t129.5 302.5v960h48v-960q0 -192 -144 -336t-336 -144t-336 144t-144 336z" />
<glyph unicode="V" d="M6 1440l514 -1440h48l514 1440h-48l-490 -1373l-490 1373h-48z" />
<glyph unicode="W" d="M6 1440h48l240 -1350l226 633h48l226 -633l240 1350h48l-256 -1440h-48l-234 640l-234 -640h-48z" />
<glyph unicode="X" d="M6 0l514 720l-514 720h48l490 -686l490 686h48l-514 -720l514 -720h-48l-490 686l-490 -686h-48z" />
<glyph unicode="Y" d="M6 1440h48l490 -686l490 686h48l-514 -720v-720h-48v720z" />
<glyph unicode="Z" d="M32 0v48l954 1344h-954v48h1024v-48l-954 -1344h954v-48h-1024z" />
<glyph unicode="[" d="M304 0v1440h480v-48h-432v-1344h432v-48h-480z" />
<glyph unicode="\" d="M6 1440h58l1018 -1440h-58z" />
<glyph unicode="]" d="M304 0v48h432v1344h-432v48h480v-1440h-480z" />
<glyph unicode="^" d="M64 960l480 480l480 -480l-32 -32l-448 448l-448 -448z" />
<glyph unicode="_" d="M96 0v48h896v-48h-896z" />
<glyph unicode="`" d="M381 1440h54l272 -544h-54z" />
<glyph unicode="a" d="M96 281.5q0 134.5 128 206.5t320 72q250 0 323.5 17.5t76.5 62.5q0 115 -110.5 193.5t-289.5 78.5t-256 -46.5t-102 -84.5l-32 32q19 38 108.5 92.5t281.5 54.5t320 -96t128 -224v-640h-48v96q-208 -96 -413 -96t-320 73.5t-115 208zM144 278.5q0 -105.5 104 -168 t283 -62.5t413 99l-3 423q0 -32 -121.5 -45t-275.5 -13q-173 0 -286.5 -64t-113.5 -169.5z" />
<glyph unicode="b" d="M64 0v1440h48v-736q16 38 128 147t304 109t336 -144t144 -336t-144 -336t-336 -144t-304 109t-128 147v-256h-48zM112 480q0 -173 129.5 -302.5t302.5 -129.5t302.5 129.5t129.5 302.5t-129.5 302.5t-302.5 129.5t-302.5 -129.5t-129.5 -302.5z" />
<glyph unicode="c" d="M136 480q0 192 144 336t336 144t336 -144l-34 -34q-130 130 -302.5 130t-302 -129.5t-129.5 -302.5t129.5 -302.5t302.5 -129.5t302 130l34 -34q-144 -144 -336 -144t-336 144t-144 336z" />
<glyph unicode="d" d="M64 480q0 192 144 336t336 144t304 -109t128 -147v736h48v-1440h-48v256q-16 -38 -128 -147t-304 -109t-336 144t-144 336zM112 480q0 -173 129.5 -302.5t302.5 -129.5t302.5 129.5t129.5 302.5t-129.5 302.5t-302.5 129.5t-302.5 -129.5t-129.5 -302.5z" />
<glyph unicode="e" d="M64 480q0 192 144 336t336 144t336 -144t144 -336h-912q0 -173 129.5 -302.5t302.5 -129.5t259.5 65.5t137.5 148.5l38 -25q-51 -90 -147 -163.5t-288 -73.5t-336 144t-144 336zM115 528h858q3 125 -126.5 254.5t-302.5 129.5t-302.5 -129.5t-126.5 -254.5z" />
<glyph unicode="f" d="M230 912v48h288v160q0 128 96 224t224 96t224 -96l-33 -34q-82 82 -190.5 82t-190.5 -81.5t-82 -190.5v-160h272v-48h-272v-912h-48v912h-288z" />
<glyph unicode="g" d="M64 480q0 192 144 336t336 144t304 -109t128 -147v256h48v-960q0 -192 -144 -336t-336 -144h-320l6 48h314q173 0 302.5 129.5t129.5 302.5v256q-16 -38 -128 -147t-304 -109t-336 144t-144 336zM112 480q0 -173 129.5 -302.5t302.5 -129.5t302.5 129.5t129.5 302.5 t-129.5 302.5t-302.5 129.5t-302.5 -129.5t-129.5 -302.5z" />
<glyph unicode="h" d="M96 0v1440h48l-3 -640q45 45 137.5 102.5t265.5 57.5q192 0 320 -144t128 -336v-480h-48v480q0 173 -113.5 302.5t-286.5 129.5q-154 0 -256 -59t-147 -111l3 -742h-48z" />
<glyph unicode="i" d="M224 0v48h296v864h-200v48h248v-912h296v-48h-640zM504 1282q0 16 12 28t28 12t28 -12t12 -28t-12 -28t-28 -12t-28 12t-12 28z" />
<glyph unicode="j" d="M128 -336l34 30q127 -130 294 -129h8q173 3 302.5 132.5t129.5 302.5v912h-200v48h248v-960q0 -192 -144 -336t-336 -144t-336 144zM880 1282q0 16 12 28t28 12t28 -12t12 -28t-12 -28t-28 -12t-28 12t-12 28z" />
<glyph unicode="k" d="M96 0v1440h48v-1056l771 576h77l-461 -339l461 -621h-58l-441 595l-349 -262v-333h-48z" />
<glyph unicode="l" d="M224 0v48h296v1344h-200v48h248v-1392h296v-48h-640z" />
<glyph unicode="m" d="M96 0v960h48l-3 -70q26 26 62.5 48t132.5 22t142.5 -32t65.5 -77q112 109 208 109t168 -70.5t72 -169.5v-720h-48v720q0 93 -56 142.5t-136 49.5t-132 -48t-52 -144v-720h-48v720q0 96 -52 144t-132 48t-125 -30.5t-67 -55.5v-826h-48z" />
<glyph unicode="n" d="M96 0v960h48v-160q42 45 134.5 102.5t265.5 57.5q192 0 320 -144t128 -336v-480h-48v480q0 173 -113.5 302.5t-286.5 129.5q-154 0 -256 -59t-144 -111v-742h-48z" />
<glyph unicode="o" d="M64 480q0 192 144 336t336 144t336 -144t144 -336t-144 -336t-336 -144t-336 144t-144 336zM112 480q0 -173 129.5 -302.5t302.5 -129.5t302.5 129.5t129.5 302.5t-129.5 302.5t-302.5 129.5t-302.5 -129.5t-129.5 -302.5z" />
<glyph unicode="p" d="M64 -480v1440h48v-256q16 38 128 147t304 109t336 -144t144 -336t-144 -336t-336 -144t-304 109t-128 147v-736h-48zM112 480q0 -173 129.5 -302.5t302.5 -129.5t302.5 129.5t129.5 302.5t-129.5 302.5t-302.5 129.5t-302.5 -129.5t-129.5 -302.5z" />
<glyph unicode="q" d="M64 480q0 -192 144 -336t336 -144t304 109t128 147v-736h48v1440h-48v-256q-16 38 -128 147t-304 109t-336 -144t-144 -336zM112 480q0 173 129.5 302.5t302.5 129.5t302.5 -129.5t129.5 -302.5t-129.5 -302.5t-302.5 -129.5t-302.5 129.5t-129.5 302.5z" />
<glyph unicode="r" d="M160 0v960h48l-3 -160q45 45 137.5 102.5t265.5 57.5q192 0 320 -144l-34 -34q-114 130 -286 130q-154 0 -256 -59t-147 -111l3 -742h-48z" />
<glyph unicode="s" d="M160 122l32 32q179 -106 352 -106t254.5 53t81.5 139t-171 154l-360 140q-189 74 -189 186t96 176t288 64t384 -122l-32 -32q-179 106 -352 106t-254.5 -53t-81.5 -139t171 -154l360 -140q189 -74 189 -186t-96 -176t-288 -64t-384 122z" />
<glyph unicode="t" d="M224 912v48h296v320h48v-320h296v-48h-296v-912h-48v912h-296z" />
<glyph unicode="u" d="M96 480v480h48v-480q0 -173 113.5 -302.5t286.5 -129.5q154 0 256 59t144 111v742h48v-960h-48v160q-42 -45 -134.5 -102.5t-265.5 -57.5q-192 0 -320 144t-128 336z" />
<glyph unicode="v" d="M6 960h58l480 -909l480 909h58l-514 -960h-48z" />
<glyph unicode="w" d="M6 960h58l240 -870l216 870h48l216 -870l240 870h58l-274 -960h-48l-216 851l-216 -851h-48z" />
<glyph unicode="x" d="M6 0l509 480l-509 480h58l480 -451l480 451h58l-509 -480l509 -480h-58l-480 451l-480 -451h-58z" />
<glyph unicode="y" d="M6 960h58l480 -909l480 909h58l-658 -1248q-96 -192 -270 -192h-96v48l96 3q150 -3 222 141l144 288z" />
<glyph unicode="z" d="M64 0v48l893 864h-893v48h960v-48l-893 -864h893v-48h-960z" />
<glyph unicode="{" d="M224 696v48q128 0 224 92t96 204v80q0 128 96 224t224 96v-48q-109 0 -190.5 -81.5t-81.5 -190.5v-80q0 -128 -65.5 -203t-142.5 -117q77 -35 142.5 -113.5t65.5 -206.5v-80q0 -115 78.5 -193.5t193.5 -78.5v-48q-128 0 -224 96t-96 224v80q0 118 -96 207t-224 89z" />
<glyph unicode="|" d="M520 0v1440h48v-1440h-48z" />
<glyph unicode="}" d="M224 0v48q115 0 193.5 78.5t78.5 193.5v80q0 128 65.5 206.5t142.5 113.5q-77 42 -142.5 117t-65.5 203v80q0 109 -81.5 190.5t-190.5 81.5v48q128 0 224 -96t96 -224v-80q0 -112 96 -204t224 -92v-48q-128 0 -224 -89t-96 -207v-80q0 -128 -96 -224t-224 -96z" />
<glyph unicode="~" d="M96 1184q0 122 61 189t157 67t243 -104t217.5 -104t120 56t49.5 152h48q0 -122 -61 -189t-157 -67t-243 104t-217.5 104t-120 -56t-49.5 -152h-48z" />
<glyph unicode="&#xa0;" />
<glyph unicode="&#xaa;" d="M96 281.5q0 134.5 128 206.5t320 72q250 0 323.5 17.5t76.5 62.5q0 115 -110.5 193.5t-289.5 78.5t-256 -46.5t-102 -84.5l-32 32q19 38 108.5 92.5t281.5 54.5t320 -96t128 -224v-640h-48v96q-208 -96 -413 -96t-320 73.5t-115 208zM144 278.5q0 -105.5 104 -168 t283 -62.5t413 99l-3 423q0 -32 -121.5 -45t-275.5 -13q-173 0 -286.5 -64t-113.5 -169.5z" />
<glyph unicode="&#xad;" d="M184 696v48h720v-48h-720z" />
<glyph unicode="&#xb2;" d="M184 0v48l578 784q94 120 94 248t-92 220t-220 92t-220 -92t-92 -220h-48q0 147 106.5 253.5t253.5 106.5t253.5 -100t106.5 -253.5t-104 -286.5l-560 -752h664v-48h-720z" />
<glyph unicode="&#xb3;" d="M184 360h48q0 -128 92 -220t220 -92t220 92t92 220t-92 232t-220 104v48q128 0 220 104t92 232t-92 220t-220 92t-220 -92t-92 -220h-48q0 147 106.5 253.5t253.5 106.5t253.5 -100t106.5 -253.5t-61.5 -236t-138.5 -130.5q77 -48 138.5 -130.5t61.5 -229.5 t-106.5 -253.5t-253.5 -106.5t-253.5 106.5t-106.5 253.5z" />
<glyph unicode="&#xb9;" d="M424 1248l192 192h48v-1440h-48v1373l-158 -159z" />
<glyph unicode="&#xba;" d="M64 480q0 192 144 336t336 144t336 -144t144 -336t-144 -336t-336 -144t-336 144t-144 336zM112 480q0 -173 129.5 -302.5t302.5 -129.5t302.5 129.5t129.5 302.5t-129.5 302.5t-302.5 129.5t-302.5 -129.5t-129.5 -302.5z" />
<glyph unicode="&#xc0;" d="M6 0l514 1440h48l514 -1440h-48l-154 435l-672 -3l-154 -432h-48zM226 480h636l-318 893zM245 2106h54l272 -544h-54z" />
<glyph unicode="&#xc2;" d="M6 0l514 1440h48l514 -1440h-48l-154 435l-672 -3l-154 -432h-48zM64 1594l480 480l480 -480l-32 -32l-448 448l-448 -448zM226 480h636l-318 893z" />
<glyph unicode="&#xc3;" d="M6 0l514 1440h48l514 -1440h-48l-154 435l-672 -3l-154 -432h-48zM96 1562q0 122 61 189t157 67t243 -104t217.5 -104t120 56t49.5 152h48q0 -122 -61 -189t-157 -67t-243 104t-217.5 104t-120 -56t-49.5 -152h-48zM226 480h636l-318 893z" />
<glyph unicode="&#xc8;" d="M96 0v1440h896v-48h-848v-648h560v-48h-560v-648h848v-48h-896zM245 2106h54l272 -544h-54z" />
<glyph unicode="&#xca;" d="M64 1594l480 480l480 -480l-32 -32l-448 448l-448 -448zM96 0v1440h896v-48h-848v-648h560v-48h-560v-648h848v-48h-896z" />
<glyph unicode="&#xcc;" d="M224 0v48h296v1344h-296v48h640v-48h-296v-1344h296v-48h-640zM245 2106h54l272 -544h-54z" />
<glyph unicode="&#xce;" d="M64 1594l480 480l480 -480l-32 -32l-448 448l-448 -448zM224 0v48h296v1344h-296v48h640v-48h-296v-1344h296v-48h-640z" />
<glyph unicode="&#xd1;" d="M96 0v1440h48l800 -1334v1334h48v-1440h-48l-800 1334v-1334h-48zM96 1562q0 122 61 189t157 67t243 -104t217.5 -104t120 56t49.5 152h48q0 -122 -61 -189t-157 -67t-243 104t-217.5 104t-120 -56t-49.5 -152h-48z" />
<glyph unicode="&#xd2;" d="M64 720q0 288 144 504t336 216t336 -216t144 -504t-144 -504t-336 -216t-336 216t-144 504zM112 720q0 -269 129.5 -470.5t302.5 -201.5t302.5 201.5t129.5 470.5t-129.5 470.5t-302.5 201.5t-302.5 -201.5t-129.5 -470.5zM245 2106h54l272 -544h-54z" />
<glyph unicode="&#xd4;" d="M64 720q0 288 144 504t336 216t336 -216t144 -504t-144 -504t-336 -216t-336 216t-144 504zM64 1594l480 480l480 -480l-32 -32l-448 448l-448 -448zM112 720q0 -269 129.5 -470.5t302.5 -201.5t302.5 201.5t129.5 470.5t-129.5 470.5t-302.5 201.5t-302.5 -201.5 t-129.5 -470.5z" />
<glyph unicode="&#xd5;" d="M64 720q0 288 144 504t336 216t336 -216t144 -504t-144 -504t-336 -216t-336 216t-144 504zM96 1562q0 122 61 189t157 67t243 -104t217.5 -104t120 56t49.5 152h48q0 -122 -61 -189t-157 -67t-243 104t-217.5 104t-120 -56t-49.5 -152h-48zM112 720q0 -269 129.5 -470.5 t302.5 -201.5t302.5 201.5t129.5 470.5t-129.5 470.5t-302.5 201.5t-302.5 -201.5t-129.5 -470.5z" />
<glyph unicode="&#xd9;" d="M64 480v960h48v-960q0 -173 129.5 -302.5t302.5 -129.5t302.5 129.5t129.5 302.5v960h48v-960q0 -192 -144 -336t-336 -144t-336 144t-144 336zM245 2106h54l272 -544h-54z" />
<glyph unicode="&#xdb;" d="M64 480v960h48v-960q0 -173 129.5 -302.5t302.5 -129.5t302.5 129.5t129.5 302.5v960h48v-960q0 -192 -144 -336t-336 -144t-336 144t-144 336zM64 1594l480 480l480 -480l-32 -32l-448 448l-448 -448z" />
<glyph unicode="&#xe0;" d="M96 281.5q0 134.5 128 206.5t320 72q250 0 323.5 17.5t76.5 62.5q0 115 -110.5 193.5t-289.5 78.5t-256 -46.5t-102 -84.5l-32 32q19 38 108.5 92.5t281.5 54.5t320 -96t128 -224v-640h-48v96q-208 -96 -413 -96t-320 73.5t-115 208zM144 278.5q0 -105.5 104 -168 t283 -62.5t413 99l-3 423q0 -32 -121.5 -45t-275.5 -13q-173 0 -286.5 -64t-113.5 -169.5zM245 1626h54l272 -544h-54z" />
<glyph unicode="&#xe2;" d="M64 1114l480 480l480 -480l-32 -32l-448 448l-448 -448zM96 281.5q0 134.5 128 206.5t320 72q250 0 323.5 17.5t76.5 62.5q0 115 -110.5 193.5t-289.5 78.5t-256 -46.5t-102 -84.5l-32 32q19 38 108.5 92.5t281.5 54.5t320 -96t128 -224v-640h-48v96q-208 -96 -413 -96 t-320 73.5t-115 208zM144 278.5q0 -105.5 104 -168t283 -62.5t413 99l-3 423q0 -32 -121.5 -45t-275.5 -13q-173 0 -286.5 -64t-113.5 -169.5z" />
<glyph unicode="&#xe3;" d="M96 281.5q0 134.5 128 206.5t320 72q250 0 323.5 17.5t76.5 62.5q0 115 -110.5 193.5t-289.5 78.5t-256 -46.5t-102 -84.5l-32 32q19 38 108.5 92.5t281.5 54.5t320 -96t128 -224v-640h-48v96q-208 -96 -413 -96t-320 73.5t-115 208zM96 1082q0 122 61 189t157 67 t243 -104t217.5 -104t120 56t49.5 152h48q0 -122 -61 -189t-157 -67t-243 104t-217.5 104t-120 -56t-49.5 -152h-48zM144 278.5q0 -105.5 104 -168t283 -62.5t413 99l-3 423q0 -32 -121.5 -45t-275.5 -13q-173 0 -286.5 -64t-113.5 -169.5z" />
<glyph unicode="&#xe8;" d="M64 480q0 192 144 336t336 144t336 -144t144 -336h-912q0 -173 129.5 -302.5t302.5 -129.5t259.5 65.5t137.5 148.5l38 -25q-51 -90 -147 -163.5t-288 -73.5t-336 144t-144 336zM115 528h858q3 125 -126.5 254.5t-302.5 129.5t-302.5 -129.5t-126.5 -254.5zM245 1626h54 l272 -544h-54z" />
<glyph unicode="&#xea;" d="M64 480q0 192 144 336t336 144t336 -144t144 -336h-912q0 -173 129.5 -302.5t302.5 -129.5t259.5 65.5t137.5 148.5l38 -25q-51 -90 -147 -163.5t-288 -73.5t-336 144t-144 336zM64 1114l480 480l480 -480l-32 -32l-448 448l-448 -448zM115 528h858q3 125 -126.5 254.5 t-302.5 129.5t-302.5 -129.5t-126.5 -254.5z" />
<glyph unicode="&#xec;" d="M224 0v48h296v864h-200v48h248v-912h296v-48h-640zM245 1987h54l272 -544h-54zM504 1282q0 16 12 28t28 12t28 -12t12 -28t-12 -28t-28 -12t-28 12t-12 28z" />
<glyph unicode="&#xee;" d="M64 1475l480 480l480 -480l-32 -32l-448 448l-448 -448zM224 0v48h296v864h-200v48h248v-912h296v-48h-640zM504 1282q0 16 12 28t28 12t28 -12t12 -28t-12 -28t-28 -12t-28 12t-12 28z" />
<glyph unicode="&#xf1;" d="M96 0v960h48v-160q42 45 134.5 102.5t265.5 57.5q192 0 320 -144t128 -336v-480h-48v480q0 173 -113.5 302.5t-286.5 129.5q-154 0 -256 -59t-144 -111v-742h-48zM96 1082q0 122 61 189t157 67t243 -104t217.5 -104t120 56t49.5 152h48q0 -122 -61 -189t-157 -67 t-243 104t-217.5 104t-120 -56t-49.5 -152h-48z" />
<glyph unicode="&#xf2;" d="M64 480q0 192 144 336t336 144t336 -144t144 -336t-144 -336t-336 -144t-336 144t-144 336zM112 480q0 -173 129.5 -302.5t302.5 -129.5t302.5 129.5t129.5 302.5t-129.5 302.5t-302.5 129.5t-302.5 -129.5t-129.5 -302.5zM245 1626h54l272 -544h-54z" />
<glyph unicode="&#xf4;" d="M64 480q0 192 144 336t336 144t336 -144t144 -336t-144 -336t-336 -144t-336 144t-144 336zM64 1114l480 480l480 -480l-32 -32l-448 448l-448 -448zM112 480q0 -173 129.5 -302.5t302.5 -129.5t302.5 129.5t129.5 302.5t-129.5 302.5t-302.5 129.5t-302.5 -129.5 t-129.5 -302.5z" />
<glyph unicode="&#xf5;" d="M64 480q0 192 144 336t336 144t336 -144t144 -336t-144 -336t-336 -144t-336 144t-144 336zM96 1082q0 122 61 189t157 67t243 -104t217.5 -104t120 56t49.5 152h48q0 -122 -61 -189t-157 -67t-243 104t-217.5 104t-120 -56t-49.5 -152h-48zM112 480q0 -173 129.5 -302.5 t302.5 -129.5t302.5 129.5t129.5 302.5t-129.5 302.5t-302.5 129.5t-302.5 -129.5t-129.5 -302.5z" />
<glyph unicode="&#xf9;" d="M96 480v480h48v-480q0 -173 113.5 -302.5t286.5 -129.5q154 0 256 59t144 111v742h48v-960h-48v160q-42 -45 -134.5 -102.5t-265.5 -57.5q-192 0 -320 144t-128 336zM245 1626h54l272 -544h-54z" />
<glyph unicode="&#xfb;" d="M64 1114l480 480l480 -480l-32 -32l-448 448l-448 -448zM96 480v480h48v-480q0 -173 113.5 -302.5t286.5 -129.5q154 0 256 59t144 111v742h48v-960h-48v160q-42 -45 -134.5 -102.5t-265.5 -57.5q-192 0 -320 144t-128 336z" />
<glyph unicode="&#x152;" horiz-adv-x="2176" d="M64 720q0 288 144 504t336 216t336 -216t144 -504t-144 -504t-336 -216t-336 216t-144 504zM112 720q0 -269 129.5 -470.5t302.5 -201.5t302.5 201.5t129.5 470.5t-129.5 470.5t-302.5 201.5t-302.5 -201.5t-129.5 -470.5zM1184 0v1440h896v-48h-848v-648h560v-48h-560 v-648h848v-48h-896z" />
<glyph unicode="&#x153;" horiz-adv-x="2176" d="M64 480q0 192 144 336t336 144t336 -144t144 -336t-144 -336t-336 -144t-336 144t-144 336zM112 480q0 -173 129.5 -302.5t302.5 -129.5t302.5 129.5t129.5 302.5t-129.5 302.5t-302.5 129.5t-302.5 -129.5t-129.5 -302.5zM1152 480q0 192 144 336t336 144t336 -144 t144 -336h-912q0 -173 129.5 -302.5t302.5 -129.5t259.5 65.5t137.5 148.5l38 -25q-51 -90 -147 -163.5t-288 -73.5t-336 144t-144 336zM1203 528h858q3 125 -126.5 254.5t-302.5 129.5t-302.5 -129.5t-126.5 -254.5z" />
<glyph unicode="&#x2c6;" d="M64 960l480 480l480 -480l-32 -32l-448 448l-448 -448z" />
<glyph unicode="&#x2dc;" d="M-448 122q0 122 61 189t157 67t243 -104t217.5 -104t120 56t49.5 152h48q0 -122 -61 -189t-157 -67t-243 104t-217.5 104t-120 -56t-49.5 -152h-48z" />
<glyph unicode="&#x2013;" horiz-adv-x="1024" d="M184 696v48h656v-48h-656z" />
<glyph unicode="&#x2014;" horiz-adv-x="2048" d="M184 696v48h1680v-48h-1680z" />
<glyph unicode="&#x2018;" d="M381 1440h54l272 -544h-54z" />
<glyph unicode="&#x2019;" d="M381 896l272 544h54l-272 -544h-54z" />
<glyph unicode="&#x201c;" d="M320 896v544h48v-544h-48zM720 896v544h48v-544h-48z" />
<glyph unicode="&#x201d;" d="M320 896v544h48v-544h-48zM720 896v544h48v-544h-48z" />
<glyph unicode="&#x2026;" horiz-adv-x="3264" d="M464 80q0 32 24 56t56 24t56 -24t24 -56t-24 -56t-56 -24t-56 24t-24 56zM1552 80q0 32 24 56t56 24t56 -24t24 -56t-24 -56t-56 -24t-56 24t-24 56zM2640 80q0 32 24 56t56 24t56 -24t24 -56t-24 -56t-56 -24t-56 24t-24 56z" />
<glyph unicode="&#x2039;" d="M184 720l720 360v-48l-629 -312l629 -312v-48z" />
<glyph unicode="&#x203a;" d="M184 360v48l629 312l-629 312v48l720 -360z" />
<glyph unicode="&#x2122;" horiz-adv-x="2176" d="M96 1392v48h896v-48h-424v-1392h-48v1392h-424zM1184 0v1440h48l400 -858l400 858h48v-1440h-48v1325l-400 -858l-400 858v-1325h-48z" />
<glyph unicode="&#xe000;" horiz-adv-x="960" d="M0 960h960v-960h-960v960z" />
<glyph unicode="&#xfb01;" horiz-adv-x="2176" d="M230 912v48h288v160q0 128 96 224t224 96t224 -96l-33 -34q-82 82 -190.5 82t-190.5 -81.5t-82 -190.5v-160h272v-48h-272v-912h-48v912h-288zM1312 0v48h296v864h-200v48h248v-912h296v-48h-640zM1592 1282q0 16 12 28t28 12t28 -12t12 -28t-12 -28t-28 -12t-28 12 t-12 28z" />
<glyph unicode="&#xfb02;" horiz-adv-x="2176" d="M230 912v48h288v160q0 128 96 224t224 96t224 -96l-33 -34q-82 82 -190.5 82t-190.5 -81.5t-82 -190.5v-160h272v-48h-272v-912h-48v912h-288zM1312 0v48h296v1344h-200v48h248v-1392h296v-48h-640z" />
<glyph unicode="&#xfb03;" horiz-adv-x="3264" d="M230 912v48h288v160q0 128 96 224t224 96t224 -96l-33 -34q-82 82 -190.5 82t-190.5 -81.5t-82 -190.5v-160h272v-48h-272v-912h-48v912h-288zM1318 912v48h288v160q0 128 96 224t224 96t224 -96l-33 -34q-82 82 -190.5 82t-190.5 -81.5t-82 -190.5v-160h272v-48h-272 v-912h-48v912h-288zM2400 0v48h296v864h-200v48h248v-912h296v-48h-640zM2680 1282q0 16 12 28t28 12t28 -12t12 -28t-12 -28t-28 -12t-28 12t-12 28z" />
<glyph unicode="&#xfb04;" horiz-adv-x="3264" d="M230 912v48h288v160q0 128 96 224t224 96t224 -96l-33 -34q-82 82 -190.5 82t-190.5 -81.5t-82 -190.5v-160h272v-48h-272v-912h-48v912h-288zM1318 912v48h288v160q0 128 96 224t224 96t224 -96l-33 -34q-82 82 -190.5 82t-190.5 -81.5t-82 -190.5v-160h272v-48h-272 v-912h-48v912h-288zM2400 0v48h296v1344h-200v48h248v-1392h296v-48h-640z" />
</font>
</defs>
</svg>
